<svg width="293" height="216" viewBox="0 0 293 216" fill="none" xmlns="http://www.w3.org/2000/svg">
<style>svg { background-color: white; }</style>
<path d="M86.8326 30H65.3829C65.4544 30.0239 65.523 30.0559 65.5874 30.0954L66.1271 30.384C66.4139 30.5181 66.6601 30.7264 66.8403 30.9874C66.914 31.1018 67.0281 31.3284 66.952 31.4787C66.876 31.6694 66.8403 31.9699 66.6501 32.0463C66.4001 32.1485 66.1257 32.1751 65.8608 32.1226C65.7069 32.1157 65.5544 32.0901 65.4067 32.0463C65.9725 32.2728 66.5003 32.5376 66.876 33.067C66.914 33.1433 67.0662 33.1815 67.2159 33.1815C67.254 33.1815 67.254 33.2554 67.254 33.2936C67.1779 33.3699 67.1042 33.4081 67.1399 33.5202H67.254C67.4418 33.4438 67.4038 33.067 67.6677 33.1815C67.7601 33.2385 67.8273 33.3288 67.8556 33.4338C67.8838 33.5389 67.8711 33.6508 67.8198 33.7467C67.678 33.8842 67.5263 34.011 67.3657 34.1259C67.3481 34.1678 67.3391 34.2128 67.3391 34.2583C67.3391 34.3037 67.3481 34.3488 67.3657 34.3907C67.4612 34.5261 67.5261 34.6807 67.5559 34.8438C67.6677 35.1085 67.7057 35.4114 67.8198 35.6737C67.9978 36.2236 68.0869 36.7985 68.0837 37.3766C68.0837 37.6771 67.9316 37.9418 68.0457 38.2447C68.1452 38.5278 68.2845 38.7953 68.4594 39.0389C68.61 39.2309 68.7482 39.4324 68.8731 39.6423C69.0989 40.0215 69.515 40.3983 69.3272 40.8538C69.213 41.1185 68.7994 41.0923 68.5355 41.2306C68.3096 41.419 68.4974 41.7219 68.6092 41.9103C68.7994 42.2514 68.3833 42.4779 68.1194 42.5924C68.1955 42.7045 68.3571 42.6663 68.3833 42.7427C68.4213 42.9311 68.6092 43.0456 68.4974 43.234C68.3453 43.4605 67.8935 43.575 68.1194 43.9137C68.2716 44.1784 68.1741 44.4717 68.0837 44.746C68.0265 44.89 67.9343 45.0173 67.8156 45.1164C67.6968 45.2155 67.5553 45.2833 67.4038 45.3136C67.172 45.3809 66.9278 45.3931 66.6905 45.3494C66.618 45.3068 66.5366 45.2815 66.4528 45.2755C65.8132 45.1991 65.1713 45.0107 64.5318 45.0107C64.3504 45.039 64.1731 45.0895 64.004 45.161C63.8401 45.2823 63.6874 45.418 63.5475 45.5664L63.4667 45.657L63.4167 45.7167C63.4167 45.7167 63.3953 45.7405 63.3858 45.7548C63.2763 45.8928 63.1769 46.0387 63.0886 46.1913L63.072 46.2199L63.0435 46.2724C62.9238 46.4928 62.8282 46.7254 62.7582 46.9664C62.5014 47.8321 62.6131 48.5738 62.7938 48.7551C62.8438 48.8052 64.0372 49.1748 64.8694 49.5445C65.1767 49.6754 65.4746 49.8276 65.7609 50H86.8231L86.8326 30Z" fill="#E1000F"/>
<path d="M66.6581 37.2955C66.8079 37.3336 67.0338 37.3336 67.0338 37.4099C66.9601 37.7128 66.506 37.7868 66.2801 38.0896H66.1684C66.0542 38.166 66.0923 38.3544 65.9782 38.3544C65.8645 38.3291 65.7457 38.3425 65.6406 38.3925C65.7078 38.4762 65.7947 38.5418 65.8935 38.5834C65.9922 38.625 66.0998 38.6414 66.2064 38.631C66.2379 38.6427 66.2653 38.6634 66.2851 38.6905C66.305 38.7176 66.3165 38.75 66.3181 38.7837C66.3473 38.7808 66.3744 38.7672 66.3942 38.7455C66.4323 38.7455 66.4703 38.7455 66.4703 38.7837V38.9339C66.3562 39.0842 66.1684 39.0102 66.0162 39.046C66.3004 39.1224 66.5997 39.1224 66.884 39.046C67.1217 38.9721 66.884 38.5929 67.0338 38.4045C66.9601 38.4045 67.0338 38.2924 66.9601 38.2924C67.0338 38.2161 67.1098 38.1016 67.1859 38.0539C67.2298 38.0551 67.2734 38.0456 67.3128 38.026C67.3521 38.0065 67.3861 37.9776 67.4118 37.9418C67.4118 37.8655 67.2596 37.8273 67.2977 37.7534C67.5235 37.6007 67.7113 37.3742 67.6376 37.1476C67.5996 37.0355 67.2977 37.0355 67.1098 36.9592C66.897 36.9157 66.6765 36.9288 66.4703 36.9974C66.2773 37.0292 66.0879 37.0795 65.9045 37.1476C65.6484 37.2357 65.4077 37.3637 65.1912 37.5268C65.4601 37.425 65.7368 37.3453 66.0186 37.2883C66.2312 37.2635 66.4461 37.2659 66.6581 37.2955Z" fill="#9D9D9C"/>
<path d="M54.667 47.6485C54.8809 47.4338 55.0973 47.2049 55.3137 46.9735C55.7009 46.5147 56.1204 46.0843 56.569 45.6857C56.6991 45.5674 56.8364 45.4575 56.9803 45.3565C57.0159 45.3208 57.0159 45.2445 57.054 45.2063C56.8661 45.2826 56.752 45.4448 56.5642 45.5092C56.5262 45.5092 56.4905 45.471 56.5262 45.4329L56.9303 45.13H56.9042C56.8661 45.13 56.8661 45.0942 56.8661 45.056C56.3764 44.9797 55.9984 45.3208 55.6608 45.6213C55.5847 45.6594 55.5086 45.5855 55.4729 45.5855C54.9071 45.7739 54.4934 46.2652 53.9276 46.4918V46.4083C53.7017 46.4846 53.4806 46.6206 53.25 46.673C52.9356 46.7236 52.6164 46.7364 52.299 46.7112C51.8383 46.7641 51.3811 46.8437 50.9296 46.9497H50.8915C50.6429 47.0142 50.4033 47.1095 50.1783 47.2335L50.1521 47.2478C50.1359 47.2702 50.1184 47.2917 50.0998 47.3122C50.0293 47.4074 49.9413 47.4884 49.8407 47.5507C49.6158 47.6923 49.4063 47.8569 49.2154 48.042C49.1984 48.055 49.1774 48.0618 49.156 48.0611C48.9539 48.2566 48.7542 48.4522 48.5473 48.643C48.5119 48.6603 48.4718 48.6653 48.4332 48.6573C48.4403 48.6448 48.4482 48.6329 48.457 48.6215C48.4879 48.5667 48.5188 48.5142 48.5521 48.4617C48.5854 48.4093 48.6258 48.3449 48.6638 48.2852C48.7019 48.2256 48.7684 48.1302 48.8255 48.0467C48.832 48.0401 48.8357 48.0311 48.8357 48.0217C48.8357 48.0123 48.832 48.0033 48.8255 47.9967C48.8112 47.9837 48.7924 47.9768 48.7732 47.9776C48.9658 47.7957 49.1779 47.6358 49.4056 47.5006C49.3794 47.5006 49.3438 47.5006 49.3628 47.4648C49.3818 47.429 49.4056 47.3957 49.427 47.3599L49.4413 47.3265L49.4127 47.2979C49.3496 47.3337 49.29 47.3752 49.2344 47.4219C49.1441 47.503 49.0727 47.6604 48.9372 47.6604H48.8802C48.8657 47.6589 48.8519 47.654 48.8398 47.6461C48.8452 47.6345 48.8515 47.6233 48.8588 47.6127L48.8754 47.5817L48.8897 47.5555L48.9158 47.5078L48.9372 47.472C48.9515 47.4434 48.9681 47.4171 48.9848 47.3885L49.0086 47.348L49.049 47.2812C49.068 47.2478 49.049 47.2239 49.0204 47.212C49.0897 47.1203 49.1771 47.044 49.2772 46.9878C49.4199 46.9139 49.5649 46.8257 49.7099 46.7493L49.7717 46.6945C49.5599 46.7672 49.3585 46.8674 49.1726 46.9926C49.1498 47.0009 49.1283 47.0121 49.1084 47.026C49.091 47.0299 49.0729 47.0289 49.0561 47.023C49.0393 47.0171 49.0244 47.0065 49.0133 46.9926C49.0105 46.9833 49.0105 46.9733 49.0133 46.964C49.0513 46.8877 49.1631 46.8495 49.2511 46.7756C49.2891 46.7756 49.3248 46.7756 49.3248 46.8137C50.5325 45.8598 52.1777 46.0983 53.5828 45.6046L53.9228 45.3661C54.1106 45.2922 54.2604 45.1037 54.4887 44.9893C54.7922 44.7783 55.0172 44.4721 55.1282 44.1188C55.1237 44.0907 55.1104 44.0648 55.0902 44.0448C54.6145 44.5574 54.0508 44.9799 53.4259 45.2922C52.6342 45.7071 51.7617 45.6308 50.9391 45.7453C50.9771 45.669 51.0508 45.669 51.1269 45.669C51.1269 45.5569 51.203 45.5187 51.2791 45.4424H51.3908C51.4288 45.4424 51.4288 45.3661 51.4669 45.3661C51.5406 45.3661 51.6547 45.3303 51.6167 45.3303C51.5049 45.1777 51.2791 45.4424 51.0889 45.3303C51.1649 45.254 51.1269 45.1395 51.203 45.1037H51.3528C51.3608 45.0459 51.3875 44.9923 51.4288 44.9511C51.9947 44.6101 52.5225 44.3477 53.0479 44.0448C52.9362 44.0448 52.8601 44.1569 52.7483 44.083C52.822 44.083 52.7483 43.9685 52.822 43.9685C53.2381 43.8564 53.5757 43.6275 53.9918 43.4772C53.8396 43.4772 53.7279 43.5917 53.5757 43.4772C53.6518 43.4391 53.6898 43.3651 53.8135 43.3651V43.2507C53.8135 43.2125 53.8515 43.2125 53.8895 43.2125C53.8607 43.2085 53.834 43.1951 53.8135 43.1743C53.8515 43.1004 53.9656 43.1362 54.0512 43.0622C54.0155 43.0622 53.9395 43.0622 53.9395 43.0241C54.0691 42.8904 54.2436 42.8096 54.4292 42.7975C54.3912 42.7212 54.2771 42.7975 54.2771 42.7212C54.2771 42.683 54.3151 42.683 54.3531 42.683H54.2771C54.2034 42.6449 54.2414 42.571 54.2414 42.5328C54.4792 42.2681 54.4792 41.927 54.579 41.6265C54.541 41.6265 54.5053 41.6265 54.5053 41.5884C54.1273 42.0033 53.5258 42.1536 52.9599 42.3038H52.7555C52.6519 42.3436 52.5411 42.3608 52.4304 42.3542C52.3197 42.3476 52.2117 42.3175 52.1136 42.2657C51.977 42.1722 51.8497 42.066 51.7332 41.9485C51.4351 41.7603 51.1159 41.6082 50.7822 41.4953C49.846 41.1885 48.8636 41.048 47.8792 41.0804C48.2953 40.8419 48.7518 40.8419 49.1987 40.7012C49.8383 40.5128 50.4422 40.2862 51.1198 40.3244C50.9953 40.3053 50.8686 40.3053 50.7441 40.3244C50.2163 40.2862 49.6885 40.4364 49.1227 40.5628C48.747 40.6368 48.4094 40.7894 48.0314 40.8657C47.8055 40.9397 47.6914 41.1662 47.4275 41.1305V41.016C47.8055 40.5628 48.2573 40.1097 48.854 40.062C49.534 39.9475 50.1735 40.062 50.8511 40.1359C51.3325 40.1885 51.8093 40.277 52.2776 40.4007C52.4678 40.4007 52.5153 40.7036 52.6556 40.7417C52.8934 40.818 53.1073 40.7417 53.3332 40.892C53.3332 40.818 53.2952 40.7417 53.3332 40.6654C53.4854 40.5151 53.6732 40.7036 53.823 40.6272C54.1249 40.4388 53.5591 40.1002 53.4093 39.8354C53.4133 39.8065 53.4267 39.7797 53.4473 39.7591C53.7469 40.0238 53.9751 40.3267 54.3508 40.5151C54.5386 40.5915 54.9903 40.7036 54.9166 40.477C54.7288 40.062 54.3508 39.721 54.0488 39.3441V39.1915C53.9751 39.1915 53.9751 39.1534 53.9371 39.1176V38.9649C53.7849 38.8886 53.823 38.7384 53.7469 38.6263C53.6351 38.4355 53.7112 38.1708 53.6351 37.9442C53.5662 37.7353 53.516 37.5206 53.4854 37.3026C53.3974 36.6563 53.2452 36.0911 53.1596 35.4853C53.0836 34.7699 53.5733 34.1999 53.9133 33.5583C54.1586 33.0729 54.5216 32.6571 54.9689 32.3492C55.1169 31.8992 55.3602 31.4867 55.6822 31.14C56.0084 30.8039 56.4057 30.5455 56.8448 30.384C57.1752 30.2377 57.5133 30.1095 57.8576 30H32V50H50.3067C51.0199 49.4825 51.7332 49.2368 52.7412 48.7408C53.2191 48.507 54.3008 48.011 54.667 47.6485ZM48.8802 44.9344C48.8065 44.9344 48.6424 44.9726 48.6923 44.8963C48.7304 44.7078 48.9943 44.7078 49.1441 44.6315C49.2201 44.5934 49.3319 44.5194 49.408 44.5576C49.484 44.6697 49.5958 44.6315 49.6719 44.7078C49.4389 44.9344 49.1369 44.8223 48.8802 44.9344ZM43.11 44.1021C43.0892 44.0826 43.0758 44.0564 43.072 44.0281C43.5346 43.4262 43.9383 42.7809 44.2773 42.1011C44.7554 41.8182 45.1856 41.4608 45.5517 41.0422C46.1455 40.3596 46.8606 39.7935 47.6605 39.3728C47.9814 39.2713 48.3274 39.2839 48.64 39.4085C48.5283 39.5612 48.3381 39.523 48.1883 39.647C48.1679 39.6495 48.1471 39.6477 48.1274 39.6415C48.1077 39.6353 48.0896 39.625 48.0742 39.6113C48.0886 39.5962 48.0995 39.5781 48.1061 39.5583C48.1127 39.5385 48.1148 39.5175 48.1122 39.4968C47.7366 39.9118 47.2088 40.1026 46.9069 40.5938C46.6881 40.9707 46.5383 41.4477 46.0486 41.5717C45.8964 41.6098 46.0866 41.4572 46.0105 41.4953C44.8384 42.2132 44.0134 43.0837 43.11 44.1021ZM46.2364 41.6098C46.1984 41.6838 46.1579 41.6933 46.1223 41.7601C46.0938 41.8279 46.0401 41.8818 45.9725 41.9103C45.9345 41.9103 45.8964 41.9103 45.8964 41.8722C45.9147 41.795 45.9519 41.7236 46.0046 41.6645C46.0573 41.6053 46.1239 41.5603 46.1984 41.5335C46.2364 41.5335 46.2364 41.5717 46.2364 41.6098ZM47.9862 47.2716C47.9637 47.3146 47.932 47.352 47.8935 47.3813C47.9411 47.3813 47.9743 47.4124 47.9434 47.441C47.8631 47.5261 47.7659 47.5935 47.6581 47.6389C47.6384 47.6417 47.6184 47.6417 47.5987 47.6389C47.5535 47.6842 47.506 47.7272 47.4584 47.7701C47.4109 47.813 47.2064 47.7701 47.2706 47.7248C47.3348 47.6795 47.4537 47.5483 47.5488 47.4624C47.6011 47.4124 47.6581 47.367 47.7057 47.3122C47.7289 47.2802 47.756 47.2514 47.7865 47.2263C47.8174 47.2144 48.0171 47.1977 47.9862 47.2716ZM47.311 46.9592C47.1708 47.0594 47.0305 47.1596 46.8807 47.2454C46.7309 47.3313 46.5502 47.4124 46.3838 47.4839C46.3766 47.4741 46.3662 47.4673 46.3544 47.4646C46.3426 47.462 46.3302 47.4638 46.3196 47.4696C46.1809 47.5478 46.0537 47.645 45.9416 47.7582C45.923 47.7744 45.9055 47.792 45.8893 47.8106L45.837 47.8631C45.8108 47.8893 45.7847 47.9156 45.7538 47.9513C45.741 47.9722 45.724 47.99 45.7038 48.0038C45.6801 48.0181 45.6159 48.0181 45.623 47.9752L45.5564 48.0086C45.5359 48.0183 45.516 48.0294 45.497 48.042C45.4885 48.0395 45.4794 48.0395 45.4708 48.042C45.4624 48.0387 45.4531 48.0387 45.4447 48.042C45.3971 48.0777 45.352 48.1159 45.3068 48.1565C45.2278 48.2294 45.1554 48.3092 45.0905 48.3949L45.0786 48.4093V48.4259L45.0524 48.4617C45.0439 48.4702 45.0332 48.476 45.0215 48.4784L45.0072 48.4546C45.0027 48.4486 44.9988 48.4422 44.9954 48.4355C44.9954 48.4164 44.974 48.3973 44.9644 48.3759C44.9636 48.3695 44.9636 48.3631 44.9644 48.3568C45.0049 48.3139 45.0429 48.2685 45.0833 48.2208L45.1214 48.1731L45.1237 48.1254L45.1451 48.0968C45.1879 48.042 45.226 47.9895 45.264 47.937L45.2807 47.9132C45.2997 47.887 45.3163 47.8583 45.333 47.8321C45.3478 47.8074 45.3613 47.782 45.3734 47.7558V47.7415L45.409 47.6532C45.4081 47.6445 45.4081 47.6357 45.409 47.627C45.4083 47.6135 45.4083 47.6 45.409 47.5865L45.4233 47.5316C45.4252 47.5275 45.4262 47.523 45.4262 47.5185C45.4262 47.514 45.4252 47.5095 45.4233 47.5054C45.4666 47.4323 45.5167 47.3637 45.5731 47.3003L45.5564 47.3122C45.5018 47.3456 45.4661 47.3957 45.4162 47.4314C45.3662 47.4672 45.2997 47.4124 45.3472 47.3766C45.3774 47.3522 45.4059 47.3259 45.4328 47.2979C45.4928 47.2302 45.5571 47.1664 45.6254 47.1071C45.6682 47.0761 45.7062 47.0475 45.7395 47.0188C45.7462 47.0146 45.7519 47.0089 45.7561 47.0021C45.7827 46.9687 45.8113 46.9368 45.8417 46.9067C46.2007 46.5562 46.8094 46.5729 47.2849 46.3511C47.4727 46.2747 47.6986 46.3868 47.8864 46.3511C48.0046 46.3398 48.1234 46.3656 48.2264 46.425C47.9292 46.5562 47.6201 46.766 47.311 46.9592ZM48.0813 44.3358C48.0457 44.2976 48.1954 44.3358 48.2335 44.2595H47.9292C47.8911 44.2595 47.8911 44.2213 47.8911 44.1832C47.7033 44.2213 47.4774 44.2976 47.2896 44.3358C47.0257 44.4097 46.7999 44.5981 46.4979 44.6745C46.0842 44.8271 45.7443 45.1658 45.2925 45.3184C45.2545 45.3184 45.2545 45.2802 45.2545 45.2421C45.2925 45.1276 45.4423 45.0918 45.5184 44.9773C45.5184 44.9392 45.5184 44.901 45.4804 44.901C45.7823 44.486 46.1936 44.2595 46.574 43.9184V43.8063C46.6857 43.6537 46.8736 43.5798 46.9496 43.389C47.0268 43.231 47.1625 43.1095 47.3277 43.0503C47.2896 43.0122 47.2135 43.0122 47.2135 42.9358C47.0638 42.9358 46.9116 43.0122 46.7618 42.8977C46.8285 42.8337 46.9103 42.7877 46.9996 42.7641C46.9651 42.7574 46.9345 42.7378 46.914 42.7093C46.8759 42.633 46.9877 42.5495 47.1018 42.5209C47.254 42.4827 47.4418 42.4827 47.5559 42.3682C47.292 42.3325 46.9901 42.4446 46.7262 42.2943C46.8882 41.8086 47.2282 41.4029 47.6772 41.1591C47.7152 41.1591 47.7913 41.1591 47.7913 41.1972C47.7945 41.2862 47.7658 41.3734 47.7104 41.443C47.655 41.5126 47.5766 41.5599 47.4893 41.5764C47.7986 41.6146 48.102 41.6907 48.3928 41.803C48.3547 41.8769 48.281 41.8412 48.243 41.8412C48.4308 41.9533 48.6567 41.8769 48.8445 42.0296C48.7328 42.1417 48.6068 42.0296 48.5069 42.0296C49.6742 42.3682 50.9177 42.633 51.8972 43.389C51.0697 43.7676 50.196 44.0347 49.2986 44.1832C49.1965 44.1895 49.094 44.1766 48.9967 44.145C48.9967 44.1832 48.9967 44.2595 48.9586 44.2595C48.8285 44.2438 48.6968 44.2706 48.583 44.3358C48.5072 44.382 48.4201 44.406 48.3315 44.4052C48.2428 44.4043 48.1562 44.3787 48.0813 44.331V44.3358Z" fill="#000091"/>
<path d="M32.1636 74V59.2959H35.9268L39.4746 65.3457L43.0225 59.2959H46.7754V74H43.8018V63.541L40.5205 68.9551H38.4185L35.1475 63.541V74H32.1636ZM50.8823 74V59.2959H53.8662V74H50.8823ZM57.9731 74V59.2959H61.7978L68.3705 69.8164V59.2959H71.3544V74H67.5297L60.957 63.4385V74H57.9731ZM75.4613 74V59.2959H78.4452V74H75.4613ZM81.2293 71.9595L83.3929 69.9702C83.8372 70.5444 84.3397 70.9888 84.9002 71.3032C85.4676 71.6177 86.0487 71.7749 86.6434 71.7749C87.2313 71.7749 87.6927 71.6245 88.0277 71.3237C88.3695 71.0229 88.5404 70.606 88.5404 70.0728C88.5404 69.7651 88.4447 69.4814 88.2533 69.2217C88.0619 68.9619 87.8055 68.7466 87.4842 68.5757C87.1698 68.3979 86.8109 68.2134 86.4076 68.022C86.0042 67.8237 85.5941 67.6357 85.1771 67.458C84.7601 67.2803 84.3499 67.0581 83.9466 66.7915C83.5433 66.5249 83.181 66.2344 82.8597 65.9199C82.5453 65.6055 82.2923 65.209 82.1009 64.7305C81.9095 64.252 81.8138 63.7222 81.8138 63.1411C81.8138 61.9517 82.2547 60.9434 83.1366 60.1162C84.0252 59.2891 85.1532 58.8755 86.5204 58.8755C88.5711 58.8755 90.287 59.7026 91.6678 61.3569L89.4837 63.3154C88.5404 62.0918 87.5594 61.48 86.5409 61.48C86.035 61.48 85.6248 61.627 85.3104 61.9209C84.9959 62.2148 84.8387 62.5806 84.8387 63.0181C84.8387 63.2983 84.9139 63.5547 85.0643 63.7871C85.2215 64.0127 85.43 64.2144 85.6898 64.3921C85.9496 64.563 86.2469 64.7305 86.5819 64.8945C86.9168 65.0518 87.2689 65.2158 87.638 65.3867C88.014 65.5508 88.3866 65.7251 88.7557 65.9097C89.1317 66.0942 89.4871 66.3164 89.8221 66.5762C90.1571 66.8291 90.4544 67.1128 90.7142 67.4272C90.974 67.7349 91.179 68.1108 91.3294 68.5552C91.4867 68.9927 91.5653 69.478 91.5653 70.0112C91.5448 71.3442 91.0697 72.4141 90.14 73.2207C89.2171 74.0205 88.0653 74.4204 86.6844 74.4204C85.4813 74.4204 84.4388 74.2153 83.557 73.8052C82.682 73.3882 81.9061 72.7729 81.2293 71.9595ZM93.0677 62.0132V59.2959H105.126V62.0132H100.594V74H97.6102V62.0132H93.0677ZM107.746 74V59.2959H116.319V61.8389H110.73V65.2432H115.478V67.7861H110.73V71.457H116.319V74H107.746ZM108.003 55.2046H111.069L113.437 58.0449H110.71L108.003 55.2046ZM119.78 74V59.2959H124.271C125.891 59.2959 127.166 59.689 128.095 60.4751C129.032 61.2544 129.5 62.3242 129.5 63.6846C129.5 64.5596 129.295 65.3218 128.885 65.9712C128.482 66.6206 127.904 67.1265 127.152 67.4888L131.766 74H128.198L124.291 68.0527H122.763V74H119.78ZM122.763 65.52H124.445C125.074 65.52 125.563 65.3594 125.911 65.0381C126.26 64.71 126.434 64.2451 126.434 63.6436C126.434 63.083 126.26 62.6421 125.911 62.3208C125.563 61.9995 125.074 61.8389 124.445 61.8389H122.763V65.52ZM133.617 74V59.2959H142.19V61.8389H136.601V65.2432H141.349V67.7861H136.601V71.457H142.19V74H133.617ZM151.101 74V59.2959H156.874C158.015 59.2959 159.075 59.4941 160.052 59.8906C161.037 60.2803 161.864 60.8101 162.534 61.48C163.204 62.1499 163.73 62.9326 164.113 63.8281C164.496 64.7236 164.687 65.6636 164.687 66.6479C164.687 67.6323 164.496 68.5723 164.113 69.4678C163.73 70.3633 163.204 71.146 162.534 71.8159C161.864 72.4858 161.037 73.019 160.052 73.4155C159.075 73.8052 158.015 74 156.874 74H151.101ZM154.085 71.293H156.915C158.268 71.293 159.389 70.8486 160.278 69.96C161.173 69.0645 161.621 67.9604 161.621 66.6479C161.621 65.3286 161.173 64.228 160.278 63.3462C159.389 62.4575 158.268 62.0132 156.915 62.0132H154.085V71.293ZM167.564 74V59.2959H176.136V61.8389H170.547V65.2432H175.295V67.7861H170.547V71.457H176.136V74H167.564ZM185.047 74V59.2959H188.031V71.293H193.619V74H185.047ZM195.029 74L200.587 59.2959H204.494L210.061 74H206.893L205.488 70.1753H199.602L198.198 74H195.029ZM200.525 67.6323H204.565L202.545 62.1157L200.525 67.6323ZM30.646 84.0132V81.2959H42.7046V84.0132H38.1724V96H35.1885V84.0132H30.646ZM45.3247 96V81.2959H49.8159C51.436 81.2959 52.7109 81.689 53.6406 82.4751C54.5771 83.2544 55.0454 84.3242 55.0454 85.6846C55.0454 86.5596 54.8403 87.3218 54.4301 87.9712C54.0268 88.6206 53.4492 89.1265 52.6972 89.4888L57.3115 96H53.7431L49.8364 90.0527H48.3086V96H45.3247ZM48.3086 87.52H49.9902C50.6191 87.52 51.1079 87.3594 51.4565 87.0381C51.8051 86.71 51.9795 86.2451 51.9795 85.6436C51.9795 85.083 51.8051 84.6421 51.4565 84.3208C51.1079 83.9995 50.6191 83.8389 49.9902 83.8389H48.3086V87.52ZM57.9526 96L63.5102 81.2959H67.4169L72.9848 96H69.8163L68.4115 92.1753H62.5258L61.121 96H57.9526ZM63.4487 89.6323H67.4887L65.4687 84.1157L63.4487 89.6323ZM75.2562 96V81.2959H79.0809L85.6537 91.8164V81.2959H88.6376V96H84.8129L78.2401 85.4385V96H75.2562ZM91.4217 93.9595L93.5853 91.9702C94.0296 92.5444 94.5321 92.9888 95.0926 93.3032C95.66 93.6177 96.2411 93.7749 96.8358 93.7749C97.4237 93.7749 97.8851 93.6245 98.2201 93.3237C98.5619 93.0229 98.7328 92.606 98.7328 92.0728C98.7328 91.7651 98.6371 91.4814 98.4456 91.2217C98.2542 90.9619 97.9979 90.7466 97.6766 90.5757C97.3621 90.3979 97.0033 90.2134 96.5999 90.022C96.1966 89.8237 95.7865 89.6357 95.3695 89.458C94.9525 89.2803 94.5423 89.0581 94.139 88.7915C93.7357 88.5249 93.3734 88.2344 93.0521 87.9199C92.7376 87.6055 92.4847 87.209 92.2933 86.7305C92.1019 86.252 92.0062 85.7222 92.0062 85.1411C92.0062 83.9517 92.4471 82.9434 93.3289 82.1162C94.2176 81.2891 95.3455 80.8755 96.7127 80.8755C98.7635 80.8755 100.479 81.7026 101.86 83.3569L99.6761 85.3154C98.7328 84.0918 97.7518 83.48 96.7332 83.48C96.2274 83.48 95.8172 83.627 95.5028 83.9209C95.1883 84.2148 95.0311 84.5806 95.0311 85.0181C95.0311 85.2983 95.1063 85.5547 95.2567 85.7871C95.4139 86.0127 95.6224 86.2144 95.8822 86.3921C96.1419 86.563 96.4393 86.7305 96.7743 86.8945C97.1092 87.0518 97.4613 87.2158 97.8304 87.3867C98.2064 87.5508 98.5789 87.7251 98.9481 87.9097C99.3241 88.0942 99.6795 88.3164 100.014 88.5762C100.349 88.8291 100.647 89.1128 100.907 89.4272C101.166 89.7349 101.371 90.1108 101.522 90.5552C101.679 90.9927 101.758 91.478 101.758 92.0112C101.737 93.3442 101.262 94.4141 100.332 95.2207C99.4095 96.0205 98.2577 96.4204 96.8768 96.4204C95.6737 96.4204 94.6312 96.2153 93.7494 95.8052C92.8744 95.3882 92.0985 94.7729 91.4217 93.9595ZM104.88 96V81.2959H107.864V96H104.88ZM110.453 84.0132V81.2959H122.512V84.0132H117.98V96H114.996V84.0132H110.453ZM125.132 96V81.2959H128.116V96H125.132ZM131.536 91.6421C131.153 90.6919 130.962 89.6938 130.962 88.6479C130.962 87.6021 131.153 86.6074 131.536 85.6641C131.919 84.7139 132.445 83.8867 133.115 83.1826C133.792 82.4785 134.619 81.918 135.596 81.501C136.581 81.084 137.64 80.8755 138.775 80.8755C139.903 80.8755 140.956 81.084 141.933 81.501C142.918 81.918 143.745 82.4785 144.415 83.1826C145.085 83.8867 145.611 84.7139 145.994 85.6641C146.377 86.6074 146.568 87.6021 146.568 88.6479C146.568 89.6938 146.377 90.6919 145.994 91.6421C145.611 92.5854 145.085 93.4092 144.415 94.1133C143.745 94.8174 142.918 95.3779 141.933 95.7949C140.956 96.2119 139.903 96.4204 138.775 96.4204C137.64 96.4204 136.581 96.2119 135.596 95.7949C134.619 95.3779 133.792 94.8174 133.115 94.1133C132.445 93.4092 131.919 92.5854 131.536 91.6421ZM135.371 85.1001C134.475 86.0503 134.028 87.2329 134.028 88.6479C134.028 90.063 134.475 91.249 135.371 92.2061C136.266 93.1562 137.401 93.6313 138.775 93.6313C139.677 93.6313 140.487 93.4126 141.205 92.9751C141.93 92.5376 142.494 91.9395 142.897 91.1807C143.3 90.4219 143.502 89.5776 143.502 88.6479C143.502 87.2329 143.054 86.0503 142.159 85.1001C141.27 84.1499 140.142 83.6748 138.775 83.6748C137.401 83.6748 136.266 84.1499 135.371 85.1001ZM149.424 96V81.2959H153.249L159.821 91.8164V81.2959H162.805V96H158.981L152.408 85.4385V96H149.424ZM32.1636 118V103.296H40.7358V105.839H35.1475V109.243H39.895V111.786H35.1475V115.457H40.7358V118H32.1636ZM35.0654 102.045L37.4341 99.2046H40.5L37.7725 102.045H35.0654ZM44.1967 118V103.296H48.0214L54.5942 113.816V103.296H57.5781V118H53.7534L47.1806 107.438V118H44.1967ZM61.685 118V103.296H70.2572V105.839H64.6689V109.243H69.4164V111.786H64.6689V115.457H70.2572V118H61.685ZM73.7181 118V103.296H78.2094C79.8295 103.296 81.1044 103.689 82.0341 104.475C82.9706 105.254 83.4388 106.324 83.4388 107.685C83.4388 108.56 83.2338 109.322 82.8236 109.971C82.4203 110.621 81.8427 111.126 81.0907 111.489L85.705 118H82.1366L78.2299 112.053H76.702V118H73.7181ZM76.702 109.52H78.3837C79.0126 109.52 79.5013 109.359 79.85 109.038C80.1986 108.71 80.3729 108.245 80.3729 107.644C80.3729 107.083 80.1986 106.642 79.85 106.321C79.5013 106 79.0126 105.839 78.3837 105.839H76.702V109.52ZM86.7357 113.642C86.346 112.692 86.1512 111.694 86.1512 110.648C86.1512 109.602 86.3426 108.607 86.7254 107.664C87.1082 106.714 87.6346 105.887 88.3045 105.183C88.9813 104.479 89.8084 103.918 90.786 103.501C91.7704 103.084 92.8299 102.875 93.9647 102.875C95.2635 102.875 96.4461 103.142 97.5125 103.675C98.5858 104.208 99.4676 104.937 100.158 105.859L97.8099 107.685C97.3724 107.062 96.8255 106.574 96.1693 106.218C95.513 105.856 94.7782 105.675 93.9647 105.675C92.5907 105.675 91.4559 106.15 90.5604 107.1C89.6649 108.05 89.2171 109.233 89.2171 110.648C89.2171 112.063 89.6854 113.249 90.6219 114.206C91.5584 115.156 92.7411 115.631 94.1698 115.631C95.5575 115.631 96.6991 115.204 97.5946 114.35V111.868H93.8621V109.161H100.578V115.416C99.8812 116.346 98.9754 117.081 97.8612 117.621C96.7469 118.154 95.5164 118.42 94.1698 118.42C93.0077 118.42 91.9207 118.212 90.909 117.795C89.9041 117.378 89.0565 116.817 88.3661 116.113C87.6756 115.409 87.1322 114.585 86.7357 113.642ZM103.896 118V103.296H112.468V105.839H106.88V109.243H111.627V111.786H106.88V115.457H112.468V118H103.896ZM106.798 102.045L109.166 99.2046H112.232L109.505 102.045H106.798ZM114.74 106.013V103.296H126.798V106.013H122.266V118H119.282V106.013H114.74ZM129.418 118V103.296H132.402V118H129.418ZM135.822 113.642C135.439 112.692 135.248 111.694 135.248 110.648C135.248 109.602 135.439 108.607 135.822 107.664C136.205 106.714 136.731 105.887 137.401 105.183C138.078 104.479 138.905 103.918 139.882 103.501C140.867 103.084 141.926 102.875 143.061 102.875C144.189 102.875 145.242 103.084 146.219 103.501C147.204 103.918 148.031 104.479 148.701 105.183C149.371 105.887 149.897 106.714 150.28 107.664C150.663 108.607 150.854 109.602 150.854 110.648C150.854 111.872 150.598 113.02 150.085 114.093C149.572 115.167 148.862 116.062 147.952 116.78L148.834 117.621C149.873 118.557 150.902 119.025 151.921 119.025C152.344 119.025 152.696 118.971 152.977 118.861V121.384C152.512 121.562 151.992 121.65 151.418 121.65C149.832 121.65 148.301 121.008 146.824 119.723L145.081 118.164C144.432 118.335 143.758 118.42 143.061 118.42C141.926 118.42 140.867 118.212 139.882 117.795C138.905 117.378 138.078 116.817 137.401 116.113C136.731 115.409 136.205 114.585 135.822 113.642ZM139.657 107.1C138.761 108.05 138.314 109.233 138.314 110.648C138.314 112.063 138.761 113.249 139.657 114.206C140.552 115.156 141.687 115.631 143.061 115.631C143.964 115.631 144.774 115.413 145.491 114.975C146.216 114.538 146.78 113.939 147.183 113.181C147.587 112.422 147.788 111.578 147.788 110.648C147.788 109.233 147.341 108.05 146.445 107.1C145.556 106.15 144.428 105.675 143.061 105.675C141.687 105.675 140.552 106.15 139.657 107.1ZM153.454 112.248V103.296H156.438V112.494C156.438 113.478 156.701 114.247 157.227 114.801C157.754 115.354 158.485 115.631 159.422 115.631C160.338 115.631 161.059 115.354 161.585 114.801C162.111 114.247 162.375 113.478 162.375 112.494V103.296H165.359V112.248C165.359 114.175 164.829 115.686 163.769 116.78C162.71 117.874 161.254 118.42 159.401 118.42C157.562 118.42 156.11 117.874 155.043 116.78C153.984 115.686 153.454 114.175 153.454 112.248ZM169.066 118V103.296H177.638V105.839H172.049V109.243H176.797V111.786H172.049V115.457H177.638V118H169.066ZM32.1636 140V125.296H40.7358V127.839H35.1475V131.243H39.895V133.786H35.1475V137.457H40.7358V140H32.1636ZM43.0073 128.013V125.296H55.0659V128.013H50.5337V140H47.5498V128.013H43.0073ZM61.8134 137.959L63.9769 135.97C64.4213 136.544 64.9237 136.989 65.4843 137.303C66.0516 137.618 66.6327 137.775 67.2274 137.775C67.8153 137.775 68.2767 137.625 68.6117 137.324C68.9535 137.023 69.1244 136.606 69.1244 136.073C69.1244 135.765 69.0287 135.481 68.8373 135.222C68.6459 134.962 68.3895 134.747 68.0682 134.576C67.7538 134.398 67.3949 134.213 66.9916 134.022C66.5883 133.824 66.1781 133.636 65.7611 133.458C65.3441 133.28 64.934 133.058 64.5306 132.792C64.1273 132.525 63.765 132.234 63.4437 131.92C63.1293 131.605 62.8763 131.209 62.6849 130.73C62.4935 130.252 62.3978 129.722 62.3978 129.141C62.3978 127.952 62.8388 126.943 63.7206 126.116C64.6093 125.289 65.7372 124.875 67.1044 124.875C69.1552 124.875 70.871 125.703 72.2518 127.357L70.0678 129.315C69.1244 128.092 68.1434 127.48 67.1249 127.48C66.619 127.48 66.2089 127.627 65.8944 127.921C65.58 128.215 65.4227 128.581 65.4227 129.018C65.4227 129.298 65.4979 129.555 65.6483 129.787C65.8055 130.013 66.014 130.214 66.2738 130.392C66.5336 130.563 66.8309 130.73 67.1659 130.895C67.5009 131.052 67.8529 131.216 68.2221 131.387C68.598 131.551 68.9706 131.725 69.3397 131.91C69.7157 132.094 70.0712 132.316 70.4061 132.576C70.7411 132.829 71.0385 133.113 71.2982 133.427C71.558 133.735 71.7631 134.111 71.9135 134.555C72.0707 134.993 72.1493 135.478 72.1493 136.011C72.1288 137.344 71.6537 138.414 70.724 139.221C69.8012 140.021 68.6493 140.42 67.2684 140.42C66.0653 140.42 65.0228 140.215 64.141 139.805C63.266 139.388 62.4901 138.773 61.8134 137.959ZM74.4002 135.642C74.0174 134.692 73.826 133.694 73.826 132.648C73.826 131.602 74.0174 130.607 74.4002 129.664C74.783 128.714 75.3094 127.887 75.9793 127.183C76.6561 126.479 77.4832 125.918 78.4608 125.501C79.4452 125.084 80.5047 124.875 81.6395 124.875C82.7674 124.875 83.8202 125.084 84.7977 125.501C85.7821 125.918 86.6092 126.479 87.2791 127.183C87.9491 127.887 88.4754 128.714 88.8582 129.664C89.2411 130.607 89.4325 131.602 89.4325 132.648C89.4325 133.694 89.2411 134.692 88.8582 135.642C88.4754 136.585 87.9491 137.409 87.2791 138.113C86.6092 138.817 85.7821 139.378 84.7977 139.795C83.8202 140.212 82.7674 140.42 81.6395 140.42C80.5047 140.42 79.4452 140.212 78.4608 139.795C77.4832 139.378 76.6561 138.817 75.9793 138.113C75.3094 137.409 74.783 136.585 74.4002 135.642ZM78.2352 129.1C77.3397 130.05 76.8919 131.233 76.8919 132.648C76.8919 134.063 77.3397 135.249 78.2352 136.206C79.1307 137.156 80.2655 137.631 81.6395 137.631C82.5418 137.631 83.3519 137.413 84.0697 136.975C84.7943 136.538 85.3582 135.939 85.7616 135.181C86.1649 134.422 86.3665 133.578 86.3665 132.648C86.3665 131.233 85.9188 130.05 85.0233 129.1C84.1346 128.15 83.0067 127.675 81.6395 127.675C80.2655 127.675 79.1307 128.15 78.2352 129.1ZM92.2884 140V125.296H95.2723V137.293H100.861V140H92.2884ZM103.481 140V125.296H106.465V140H103.481ZM110.572 140V125.296H116.344C117.486 125.296 118.546 125.494 119.523 125.891C120.508 126.28 121.335 126.81 122.005 127.48C122.675 128.15 123.201 128.933 123.584 129.828C123.967 130.724 124.158 131.664 124.158 132.648C124.158 133.632 123.967 134.572 123.584 135.468C123.201 136.363 122.675 137.146 122.005 137.816C121.335 138.486 120.508 139.019 119.523 139.416C118.546 139.805 117.486 140 116.344 140H110.572ZM113.555 137.293H116.385C117.739 137.293 118.86 136.849 119.749 135.96C120.644 135.064 121.092 133.96 121.092 132.648C121.092 131.329 120.644 130.228 119.749 129.346C118.86 128.458 117.739 128.013 116.385 128.013H113.555V137.293ZM124.84 140L130.398 125.296H134.304L139.872 140H136.704L135.299 136.175H129.413L128.008 140H124.84ZM130.336 133.632H134.376L132.356 128.116L130.336 133.632ZM142.144 140V125.296H145.128V140H142.144ZM149.234 140V125.296H153.726C155.346 125.296 156.621 125.689 157.55 126.475C158.487 127.254 158.955 128.324 158.955 129.685C158.955 130.56 158.75 131.322 158.34 131.971C157.937 132.621 157.359 133.126 156.607 133.489L161.221 140H157.653L153.746 134.053H152.218V140H149.234ZM152.218 131.52H153.9C154.529 131.52 155.018 131.359 155.366 131.038C155.715 130.71 155.889 130.245 155.889 129.644C155.889 129.083 155.715 128.642 155.366 128.321C155.018 128 154.529 127.839 153.9 127.839H152.218V131.52ZM163.072 140V125.296H171.645V127.839H166.056V131.243H170.804V133.786H166.056V137.457H171.645V140H163.072Z" fill="black"/>
<path d="M79.77 180.865C80.1696 180.865 80.5136 181.168 80.33 181.935L78.471 182.367C78.794 181.504 79.3308 180.865 79.7607 180.865H79.77ZM80.7831 183.856H80.4183C79.9535 184.406 79.4609 184.838 78.9659 184.838C78.471 184.838 78.2014 184.537 78.2014 183.856C78.2025 183.58 78.2313 183.306 78.2874 183.036L81.2688 182.054C81.8497 180.672 81.1503 180.068 80.3393 180.068C78.9287 180.068 77.3184 182.432 77.3184 184.497C77.3184 185.43 77.7599 185.933 78.4477 185.933C79.2564 185.933 80.0953 185.145 80.7715 183.849L80.7831 183.856ZM80.1813 179.511L82.2727 177.546V177.313H81.141L79.8513 179.504L80.1813 179.511ZM73.7467 180.891H74.7366L73.1844 185.199C73.0449 185.565 73.2401 185.933 73.6166 185.933C74.5089 185.933 75.952 185.047 76.4562 183.835H76.1774C75.7777 184.257 75.0155 184.819 74.3579 184.938L75.8009 180.889H77.2765L77.4601 180.273H76.0287L76.5771 178.721H76.0078L74.9853 180.273L73.77 180.446L73.7467 180.891ZM72.4105 180.686C72.4402 180.622 72.4542 180.552 72.4515 180.482C72.4487 180.412 72.4292 180.343 72.3946 180.282C72.3601 180.221 72.3114 180.169 72.2527 180.131C72.194 180.092 72.127 180.068 72.0573 180.061C71.1952 180.061 70.1727 180.837 69.7638 181.926H70.0728C70.3517 181.527 70.8257 181.085 71.2672 181.008L69.6081 185.313C69.5755 185.377 69.5593 185.448 69.5609 185.519C69.5624 185.591 69.5817 185.661 69.617 185.723C69.6522 185.785 69.7024 185.838 69.7629 185.875C69.8234 185.913 69.8924 185.936 69.9636 185.94C70.7816 185.94 71.739 185.152 72.1479 184.075H71.8691C71.5879 184.474 71.1139 184.917 70.6747 184.991L72.4105 180.686ZM72.7126 178.527C72.8059 178.528 72.8983 178.51 72.9846 178.474C73.0708 178.438 73.1492 178.386 73.2153 178.32C73.2814 178.254 73.3338 178.175 73.3695 178.089C73.4053 178.003 73.4237 177.91 73.4237 177.816C73.4237 177.627 73.3488 177.446 73.2154 177.312C73.0821 177.178 72.9012 177.103 72.7126 177.103C72.524 177.103 72.3432 177.178 72.2098 177.312C72.0765 177.446 72.0016 177.627 72.0016 177.816C72 177.91 72.0173 178.004 72.0525 178.091C72.0877 178.178 72.1401 178.257 72.2064 178.323C72.2728 178.39 72.3519 178.442 72.4388 178.477C72.5258 178.512 72.6189 178.529 72.7126 178.527ZM63.2316 185.134C63.0178 185.621 63.2316 185.933 63.7173 185.933C64.0077 185.933 64.1356 185.856 64.2541 185.544L65.395 182.513C65.9225 181.865 67.0101 181.175 67.44 181.175C67.7514 181.175 67.7095 181.434 67.505 181.823L65.7715 185.199C65.7306 185.274 65.7098 185.359 65.7111 185.444C65.7125 185.53 65.7359 185.614 65.7792 185.688C65.8225 185.762 65.8841 185.823 65.9581 185.866C66.0321 185.909 66.1159 185.932 66.2014 185.933C67.0635 185.933 68.086 185.155 68.495 184.068H68.2138C67.9349 184.467 67.4609 184.91 67.0194 184.984L68.5252 181.931C68.7001 181.608 68.8002 181.251 68.818 180.884C68.8296 180.775 68.8172 180.665 68.7815 180.562C68.7459 180.458 68.688 180.364 68.6118 180.286C68.5357 180.207 68.4433 180.147 68.3411 180.108C68.239 180.07 68.1296 180.055 68.0209 180.064C67.2773 180.064 66.5244 180.905 65.6321 181.94V181.143C65.6321 180.569 65.4485 180.064 64.9349 180.064C64.6119 180.064 64.3005 180.343 64.0054 180.742V180.851C64.5631 180.819 64.8118 181.66 64.4144 182.546L63.2316 185.134ZM63.2107 181.378C63.4152 180.679 63.3083 180.061 62.7692 180.061C62.1348 180.061 61.9744 180.546 61.3284 181.938V181.14C61.3284 180.567 61.1449 180.061 60.6313 180.061C60.0294 180.061 59.4694 180.994 59.0604 181.926H59.3393C59.6297 181.504 59.8993 181.257 60.1154 181.257C60.3734 181.257 60.5128 181.656 60.1154 182.541L58.9535 185.131C58.7397 185.618 58.9535 185.931 59.4392 185.931C59.7297 185.931 59.8575 185.854 59.976 185.541L61.117 182.511C61.44 182.113 61.7304 181.765 62.0976 181.378H63.2107ZM56.6042 180.858C57.0016 180.858 57.3478 181.161 57.1642 181.928L55.3052 182.36C55.6282 181.497 56.1673 180.858 56.5972 180.858H56.6042ZM57.6197 183.849H57.292C56.8273 184.399 56.3346 184.831 55.8397 184.831C55.3447 184.831 55.0775 184.53 55.0775 183.849C55.0774 183.573 55.1062 183.298 55.1634 183.029L58.1425 182.047C58.7235 180.665 58.024 180.061 57.213 180.061C55.8048 180.061 54.1921 182.425 54.1921 184.49C54.1921 185.423 54.6336 185.926 55.3215 185.926C56.1278 185.926 56.969 185.138 57.6452 183.842L57.6197 183.849ZM50.6205 180.898H51.6104L50.0395 185.199C49.9001 185.565 50.093 185.933 50.4694 185.933C51.3641 185.933 52.7932 185.047 53.3114 183.835H53.0302C52.6328 184.257 51.8683 184.819 51.213 184.938L52.6445 180.898H54.1201L54.3013 180.283H52.8768L53.4253 178.73H52.8583L51.8358 180.283L50.6205 180.455V180.898ZM45.1875 184.266C45.1875 182.94 46.6607 181.138 47.4903 181.138C47.6605 181.136 47.83 181.158 47.9946 181.201L47.1348 183.502C46.6398 184.106 45.8753 184.84 45.5081 184.84C45.3036 184.84 45.1758 184.667 45.1758 184.266H45.1875ZM49.7049 179.837L49.2541 179.805L48.7475 180.301H48.6406C46.1867 180.301 44.0674 183.066 44.0674 185.073C44.0568 185.192 44.0722 185.311 44.1127 185.424C44.1531 185.536 44.2176 185.638 44.3016 185.722C44.3856 185.807 44.487 185.872 44.5987 185.912C44.7104 185.953 44.8296 185.969 44.9481 185.959C45.5848 185.959 46.2076 185.052 46.907 184.08L46.8745 184.425C46.7885 185.418 47.0906 185.959 47.6065 185.959C48.2084 185.959 48.7684 185.026 49.1774 184.094H48.8985C48.6197 184.5 48.3501 184.733 48.134 184.733C47.9179 184.733 47.7483 184.322 48.134 183.448L49.7049 179.837ZM44.4764 181.404C44.6809 180.705 44.5717 180.087 44.0349 180.087C43.4005 180.087 43.2378 180.572 42.5918 181.963V181.166C42.5918 180.593 42.4105 180.087 41.8947 180.087C41.2928 180.087 40.7328 181.019 40.3238 181.952H40.605C40.8954 181.53 41.1627 181.283 41.3788 181.283C41.6367 181.283 41.7761 181.681 41.3788 182.567L40.2169 185.157C40.0008 185.644 40.2169 185.956 40.7002 185.956C40.7635 185.967 40.8283 185.966 40.8908 185.951C40.9534 185.936 41.0124 185.909 41.0643 185.872C41.1163 185.834 41.1602 185.786 41.1935 185.731C41.2267 185.676 41.2486 185.615 41.2579 185.551L42.3989 182.52C42.7219 182.122 43.0124 181.775 43.3772 181.388L44.4764 181.404ZM36.2455 185.723L36.3524 185.39C34.921 185.12 34.7258 185.12 35.3091 183.553L35.89 181.945H37.4725C38.1813 181.945 38.1929 182.236 38.0837 183.015H38.4926L39.4407 180.413H39.0318C38.6762 181.029 38.3974 181.481 37.6212 181.481H36.062L36.8892 179.203C37.1495 178.481 37.2982 178.329 38.2672 178.329H38.9644C39.9636 178.329 40.0821 178.6 40.0821 179.614H40.4795L40.8141 177.844H34.8675L34.7514 178.178C35.9016 178.411 36.0085 178.525 35.4717 180.015L34.189 183.553C33.6522 185.033 33.4245 185.152 32.0976 185.39L32 185.723H36.2455Z" fill="black"/>
<path d="M65.3625 167.373C65.7599 167.373 66.1061 167.676 65.9226 168.441L64.0635 168.874C64.3865 168.01 64.9256 167.373 65.3555 167.373H65.3625ZM66.378 170.364H66.0132C65.5484 170.914 65.0535 171.345 64.5585 171.345C64.0635 171.345 63.7963 171.042 63.7963 170.364C63.7972 170.088 63.826 169.813 63.8823 169.543L66.8614 168.56C67.4423 167.18 66.7428 166.574 65.9318 166.574C64.5236 166.574 62.9109 168.937 62.9109 171.003C62.9109 171.935 63.3524 172.436 64.0403 172.436C64.8466 172.436 65.6878 171.648 66.3641 170.355L66.378 170.364ZM65.7715 166.014L67.8629 164.049V163.816H66.7336L65.4415 166.007L65.7715 166.014ZM59.337 167.397H60.3269L58.756 171.704C58.6166 172.07 58.8095 172.436 59.1859 172.436C60.0806 172.436 61.5213 171.553 62.0279 170.338H61.7467C61.3493 170.76 60.5848 171.32 59.9295 171.439L61.3703 167.392H62.8691L63.0527 166.777H61.6212L62.1696 165.222H61.598L60.5755 166.777L59.3602 166.949L59.337 167.397ZM58.0031 167.191C58.0327 167.127 58.0467 167.057 58.0438 166.987C58.0409 166.916 58.0212 166.847 57.9864 166.786C57.9516 166.725 57.9027 166.673 57.8438 166.634C57.7848 166.595 57.7176 166.572 57.6476 166.564C56.7878 166.564 55.7653 167.343 55.3563 168.429H55.6654C55.9466 168.031 56.4183 167.588 56.8598 167.513L55.2006 171.821C55.168 171.884 55.1517 171.955 55.1532 172.027C55.1547 172.098 55.174 172.168 55.2094 172.23C55.2447 172.292 55.2949 172.344 55.3555 172.382C55.416 172.42 55.485 172.442 55.5562 172.446C56.3741 172.446 57.3315 171.658 57.7405 170.581H57.4593C57.1805 170.982 56.7064 171.425 56.2649 171.499L58.0031 167.191ZM58.3052 165.033C58.4458 165.033 58.5833 164.991 58.7002 164.913C58.8172 164.834 58.9083 164.723 58.9621 164.593C59.016 164.462 59.03 164.319 59.0026 164.18C58.9752 164.042 58.9074 163.915 58.808 163.815C58.7086 163.715 58.5819 163.648 58.4439 163.62C58.306 163.592 58.163 163.607 58.0331 163.661C57.9031 163.715 57.7921 163.806 57.714 163.923C57.6358 164.041 57.5941 164.179 57.5941 164.32C57.5938 164.413 57.612 164.506 57.6476 164.593C57.6832 164.68 57.7356 164.758 57.8017 164.825C57.8678 164.891 57.9463 164.943 58.0327 164.979C58.1191 165.015 58.2117 165.033 58.3052 165.033ZM52.6003 171.497L55.6026 163.606L55.505 163.487L53.6228 163.704V163.937L53.9899 164.217C54.3222 164.476 54.2223 164.725 53.9132 165.525L51.5686 171.714C51.5275 171.789 51.5065 171.873 51.5078 171.959C51.5091 172.045 51.5326 172.129 51.576 172.202C51.6193 172.276 51.6811 172.337 51.7551 172.38C51.8292 172.423 51.9131 172.445 51.9985 172.446C52.8583 172.446 53.7738 171.669 54.1828 170.581H53.9016C53.5839 171.026 53.1252 171.35 52.6003 171.499V171.497ZM46.8978 170.765C46.8978 169.436 48.371 167.634 49.2006 167.634C49.3717 167.632 49.5422 167.654 49.7072 167.7L48.8451 169.998C48.3501 170.604 47.5856 171.336 47.2324 171.336C47.0279 171.336 46.8978 171.164 46.8978 170.765ZM51.4268 166.336L50.976 166.303L50.4694 166.784H50.3625C47.9086 166.784 45.7893 169.553 45.7893 171.562C45.779 171.681 45.7948 171.801 45.8355 171.913C45.8763 172.025 45.941 172.126 46.0252 172.211C46.1094 172.295 46.211 172.36 46.3228 172.4C46.4346 172.441 46.5539 172.456 46.6724 172.446C47.3067 172.446 47.9318 171.539 48.6313 170.569L48.5988 170.914C48.5128 171.907 48.8126 172.446 49.3284 172.446C49.9326 172.446 50.4903 171.513 50.9016 170.581H50.6205C50.33 171.003 50.0604 171.25 49.8466 171.25C49.6328 171.25 49.4586 170.84 49.8466 169.965L51.4268 166.336ZM40.4725 173.495C40.4725 172.921 41.0232 172.562 41.8087 172.252C42.186 172.425 42.5741 172.573 42.9706 172.695C43.7885 172.965 44.0999 173.073 44.0999 173.322C44.0999 173.849 43.2076 174.255 41.9899 174.255C40.9698 174.255 40.4725 174.038 40.4725 173.499V173.495ZM42.701 170.003C42.3455 170.003 42.206 169.7 42.206 169.355C42.206 168.394 42.7219 166.979 43.5306 166.979C43.8838 166.979 44.0256 167.282 44.0256 167.627C44.0256 168.588 43.5074 170.003 42.701 170.003ZM45.0248 172.961C45.0248 172.261 44.4113 172.028 43.4098 171.718C42.55 171.46 42.1619 171.385 42.1619 171.103C42.1619 170.87 42.3455 170.606 42.7103 170.404C43.3261 170.358 43.9035 170.086 44.3321 169.64C44.7608 169.194 45.0107 168.605 45.0341 167.986C45.0362 167.782 44.9959 167.58 44.9156 167.392H46.11L46.2913 166.777H44.4113C44.1819 166.635 43.9182 166.56 43.6491 166.56C43.0121 166.567 42.4019 166.818 41.9435 167.262C41.4851 167.706 41.2132 168.308 41.1836 168.947C41.1691 169.284 41.2766 169.615 41.4863 169.879C41.6959 170.143 41.9937 170.322 42.3246 170.383C41.6274 170.695 41.237 171.061 41.237 171.495C41.233 171.608 41.2575 171.721 41.3082 171.823C41.359 171.925 41.4344 172.012 41.5275 172.077C39.9148 172.544 39.2781 173.091 39.2781 173.858C39.2781 174.625 40.2587 174.942 41.4206 174.942C43.3888 174.942 45.0364 173.872 45.0364 172.977L45.0248 172.961ZM37.5143 168.345C38.2254 168.345 38.2347 168.637 38.1278 169.413H38.5368L39.4826 166.811H39.0759C38.7204 167.427 38.4392 167.881 37.6654 167.881H36.1038L36.8892 165.711C37.1495 164.989 37.2982 164.846 38.2672 164.846H38.9644C39.9636 164.846 40.0821 165.117 40.0821 166.122H40.4795L40.8141 164.35H34.8675L34.7514 164.686C35.9016 164.919 36.0085 165.031 35.4717 166.52L34.189 170.061C33.6522 171.539 33.4245 171.658 32.0976 171.896L32 172.231H38.6112L39.7963 170.352H39.3431C38.5902 171.066 37.6445 171.751 36.3222 171.751C34.5678 171.751 34.7304 171.676 35.3114 170.068L35.9342 168.352L37.5143 168.345ZM38.3765 163.823L40.4679 162.376V162.142H39.2037L38.0418 163.816L38.3765 163.823Z" fill="black"/>
<path d="M64.6631 153.881C65.0604 153.881 65.4067 154.182 65.2231 154.949L63.3641 155.38C63.6871 154.518 64.2262 153.881 64.6561 153.881H64.6631ZM65.6785 156.87H65.3114C64.8466 157.422 64.354 157.853 63.859 157.853C63.3641 157.853 63.0968 157.55 63.0968 156.87C63.0969 156.594 63.1258 156.319 63.1828 156.049L66.1619 155.068C66.7428 153.685 66.0434 153.082 65.2324 153.082C63.8242 153.082 62.2115 155.445 62.2115 157.511C62.2115 158.443 62.653 158.947 63.3408 158.947C64.1472 158.947 64.9884 158.159 65.6762 156.863L65.6785 156.87ZM65.0837 152.525L67.1751 150.559V150.326H66.0457L64.7537 152.518L65.0837 152.525ZM58.9187 153.914H59.7041L58.1332 158.219C57.9938 158.588 58.1867 158.954 58.5631 158.954C59.4555 158.954 60.8869 158.068 61.4051 156.856H61.1239C60.7266 157.275 59.962 157.837 59.3067 157.956L60.7475 153.909H62.2231L62.4043 153.294H60.9729L61.5236 151.739H60.952L59.9295 153.294L58.9187 153.466V153.914ZM58.1448 154.399C58.3493 153.699 58.2401 153.082 57.7033 153.082C57.0666 153.082 56.9063 153.567 56.2603 154.96V154.161C56.2603 153.59 56.0767 153.082 55.5631 153.082C54.9613 153.082 54.4012 154.014 53.9923 154.946H54.2711C54.5616 154.527 54.8288 154.277 55.0449 154.277C55.3029 154.277 55.4423 154.676 55.0449 155.562L53.883 158.152C53.6669 158.639 53.883 158.951 54.3664 158.951C54.4889 158.968 54.6133 158.937 54.7137 158.865C54.8141 158.792 54.8828 158.684 54.9055 158.562L56.0465 155.532C56.3672 155.133 56.66 154.788 57.0248 154.399H58.1448ZM51.536 153.881C51.9357 153.881 52.2796 154.182 52.0961 154.949L50.237 155.38C50.56 154.518 51.0968 153.881 51.5267 153.881H51.536ZM52.5492 156.87H52.2029C51.7382 157.422 51.2455 157.853 50.7506 157.853C50.2556 157.853 49.9861 157.55 49.9861 156.87C49.9872 156.594 50.016 156.319 50.072 156.049L53.0534 155.068C53.6344 153.685 52.9349 153.082 52.1239 153.082C50.7134 153.082 49.103 155.445 49.103 157.511C49.103 158.443 49.5445 158.947 50.2324 158.947C51.0411 158.947 51.8799 158.159 52.5562 156.863L52.5492 156.87ZM45.2502 158.072C44.9597 158.072 44.5391 157.802 44.5391 157.564C44.6161 157.281 44.7132 157.004 44.8296 156.734L45.3153 155.45C45.8311 154.835 46.6166 154.175 47.0581 154.175C47.3277 154.175 47.5229 154.347 47.5229 154.748C47.5229 155.914 46.4237 158.072 45.2409 158.072H45.2502ZM48.6313 154.273C48.6313 153.399 48.3083 153.075 47.7018 153.075C46.9489 153.075 46.2401 153.874 45.529 154.844L47.3253 150.107L47.2533 150L45.3687 150.214V150.448L45.7359 150.73C46.0682 150.988 45.9682 151.259 45.6592 152.035L43.7235 157.044C43.5938 157.34 43.4896 157.647 43.4121 157.961C43.4121 158.48 44.1092 158.965 44.7459 158.965C46.2099 158.965 48.6522 156.322 48.6522 154.291L48.6313 154.273ZM42.7986 153.72C42.8282 153.656 42.8422 153.586 42.8393 153.516C42.8364 153.445 42.8167 153.376 42.7819 153.315C42.7471 153.254 42.6982 153.201 42.6393 153.163C42.5803 153.124 42.5131 153.1 42.4431 153.093C41.5809 153.093 40.5585 153.87 40.1518 154.958H40.4307C40.7095 154.56 41.1836 154.117 41.6251 154.04L39.9775 158.338C39.9476 158.401 39.9333 158.47 39.9359 158.54C39.9385 158.61 39.9578 158.678 39.9923 158.738C40.0268 158.799 40.0754 158.85 40.134 158.887C40.1925 158.925 40.2592 158.948 40.3284 158.954C41.1464 158.954 42.1038 158.166 42.5128 157.089H42.2339C41.9551 157.485 41.4903 157.926 41.0442 158.005L42.7986 153.72ZM43.0984 151.559C43.193 151.56 43.2869 151.542 43.3745 151.506C43.462 151.47 43.5415 151.417 43.6082 151.35C43.6749 151.282 43.7275 151.202 43.7629 151.114C43.7982 151.026 43.8157 150.932 43.8141 150.837C43.8123 150.648 43.7368 150.468 43.6038 150.334C43.4709 150.201 43.291 150.125 43.103 150.124C43.0098 150.124 42.9174 150.142 42.8313 150.178C42.7451 150.214 42.6669 150.266 42.601 150.333C42.5352 150.399 42.483 150.478 42.4476 150.564C42.4121 150.651 42.394 150.743 42.3943 150.837C42.3927 150.931 42.41 151.024 42.445 151.111C42.4801 151.198 42.5322 151.277 42.5984 151.343C42.6645 151.409 42.7432 151.462 42.8299 151.497C42.9166 151.532 43.0095 151.549 43.103 151.548L43.0984 151.559ZM38.7668 150.849H34.8466L34.7374 151.184C35.8993 151.417 35.9969 151.529 35.4601 153.019L34.189 156.569C33.6522 158.047 33.4245 158.166 32.0976 158.403L32 158.737H37.9675L39.2572 156.429H38.8064C38.0744 157.238 37.2122 158.252 35.89 158.252C34.8885 158.252 34.7699 158.079 35.3091 156.569L36.5778 153.03C37.1053 151.55 37.3424 151.431 38.6692 151.196L38.7668 150.849Z" fill="black"/>
</svg>
