<svg width="417" height="194" viewBox="0 0 417 194" fill="none" xmlns="http://www.w3.org/2000/svg">
<path d="M86.8326 30H65.3829C65.4544 30.0239 65.523 30.0559 65.5873 30.0954L66.127 30.384C66.4139 30.5181 66.66 30.7264 66.8403 30.9874C66.914 31.1018 67.0281 31.3284 66.952 31.4787C66.8759 31.6694 66.8403 31.9699 66.6501 32.0463C66.4001 32.1485 66.1256 32.1751 65.8608 32.1226C65.7069 32.1157 65.5544 32.0901 65.4066 32.0463C65.9725 32.2728 66.5003 32.5376 66.8759 33.067C66.914 33.1433 67.0661 33.1815 67.2159 33.1815C67.254 33.1815 67.254 33.2554 67.254 33.2936C67.1779 33.3699 67.1042 33.4081 67.1398 33.5202H67.254C67.4418 33.4438 67.4037 33.067 67.6676 33.1815C67.76 33.2385 67.8273 33.3288 67.8555 33.4338C67.8838 33.5389 67.871 33.6508 67.8198 33.7467C67.678 33.8842 67.5262 34.011 67.3657 34.1259C67.3481 34.1678 67.3391 34.2128 67.3391 34.2583C67.3391 34.3037 67.3481 34.3488 67.3657 34.3907C67.4611 34.5261 67.526 34.6807 67.5559 34.8438C67.6676 35.1085 67.7057 35.4114 67.8198 35.6737C67.9978 36.2236 68.0869 36.7985 68.0837 37.3766C68.0837 37.6771 67.9315 37.9418 68.0457 38.2447C68.1452 38.5278 68.2845 38.7953 68.4593 39.0389C68.61 39.2309 68.7482 39.4324 68.873 39.6423C69.0989 40.0215 69.515 40.3983 69.3271 40.8538C69.213 41.1185 68.7993 41.0923 68.5354 41.2306C68.3096 41.419 68.4974 41.7219 68.6091 41.9103C68.7993 42.2514 68.3833 42.4779 68.1194 42.5924C68.1954 42.7045 68.3571 42.6663 68.3833 42.7427C68.4213 42.9311 68.6091 43.0456 68.4974 43.234C68.3452 43.4605 67.8935 43.575 68.1194 43.9137C68.2715 44.1784 68.174 44.4717 68.0837 44.746C68.0265 44.89 67.9343 45.0173 67.8156 45.1164C67.6968 45.2155 67.5552 45.2833 67.4037 45.3136C67.172 45.3809 66.9278 45.3931 66.6905 45.3494C66.6179 45.3068 66.5366 45.2815 66.4527 45.2755C65.8132 45.1991 65.1713 45.0107 64.5317 45.0107C64.3504 45.039 64.1731 45.0895 64.0039 45.161C63.8401 45.2823 63.6873 45.418 63.5475 45.5664L63.4666 45.657L63.4167 45.7167C63.4167 45.7167 63.3953 45.7405 63.3858 45.7548C63.2762 45.8928 63.1769 46.0387 63.0886 46.1913L63.072 46.2199L63.0434 46.2724C62.9238 46.4928 62.8281 46.7254 62.7581 46.9664C62.5014 47.8321 62.6131 48.5738 62.7938 48.7551C62.8437 48.8052 64.0372 49.1748 64.8693 49.5445C65.1767 49.6754 65.4746 49.8276 65.7609 50H86.8231L86.8326 30Z" fill="#E1000F"/>
<path d="M66.6581 37.2955C66.8079 37.3336 67.0337 37.3336 67.0337 37.41C66.96 37.7128 66.5059 37.7868 66.2801 38.0897H66.1683C66.0542 38.166 66.0922 38.3544 65.9781 38.3544C65.8645 38.3291 65.7457 38.3425 65.6405 38.3925C65.7078 38.4762 65.7947 38.5418 65.8934 38.5834C65.9922 38.625 66.0997 38.6414 66.2063 38.631C66.2378 38.6427 66.2652 38.6634 66.2851 38.6905C66.305 38.7176 66.3164 38.75 66.3181 38.7837C66.3473 38.7808 66.3744 38.7672 66.3942 38.7455C66.4322 38.7455 66.4703 38.7455 66.4703 38.7837V38.9339C66.3561 39.0842 66.1683 39.0102 66.0162 39.046C66.3004 39.1224 66.5997 39.1224 66.8839 39.046C67.1217 38.9721 66.8839 38.5929 67.0337 38.4045C66.96 38.4045 67.0337 38.2924 66.96 38.2924C67.0337 38.2161 67.1098 38.1016 67.1859 38.0539C67.2298 38.0551 67.2733 38.0456 67.3127 38.0261C67.3521 38.0065 67.3861 37.9776 67.4117 37.9418C67.4117 37.8655 67.2596 37.8273 67.2976 37.7534C67.5235 37.6007 67.7113 37.3742 67.6376 37.1476C67.5996 37.0355 67.2976 37.0355 67.1098 36.9592C66.8969 36.9157 66.6764 36.9288 66.4703 36.9974C66.2773 37.0292 66.0878 37.0795 65.9044 37.1476C65.6483 37.2358 65.4076 37.3637 65.1912 37.5268C65.4601 37.4251 65.7368 37.3453 66.0185 37.2883C66.2311 37.2635 66.4461 37.2659 66.6581 37.2955Z" fill="#9D9D9C"/>
<path d="M54.667 47.6485C54.8809 47.4338 55.0973 47.2049 55.3137 46.9735C55.7009 46.5147 56.1204 46.0843 56.569 45.6857C56.6991 45.5674 56.8364 45.4575 56.9803 45.3565C57.0159 45.3208 57.0159 45.2445 57.054 45.2063C56.8661 45.2826 56.752 45.4448 56.5642 45.5092C56.5262 45.5092 56.4905 45.471 56.5262 45.4329L56.9303 45.13H56.9042C56.8661 45.13 56.8661 45.0942 56.8661 45.056C56.3764 44.9797 55.9984 45.3208 55.6608 45.6213C55.5847 45.6594 55.5086 45.5855 55.4729 45.5855C54.9071 45.7739 54.4934 46.2652 53.9276 46.4918V46.4083C53.7017 46.4846 53.4806 46.6206 53.25 46.673C52.9356 46.7236 52.6164 46.7364 52.299 46.7112C51.8383 46.7641 51.3811 46.8437 50.9296 46.9497H50.8915C50.6429 47.0142 50.4033 47.1095 50.1783 47.2335L50.1521 47.2478C50.1359 47.2702 50.1184 47.2917 50.0998 47.3122C50.0293 47.4074 49.9413 47.4884 49.8407 47.5507C49.6158 47.6923 49.4063 47.8569 49.2154 48.042C49.1984 48.055 49.1774 48.0618 49.156 48.0611C48.9539 48.2566 48.7542 48.4522 48.5473 48.643C48.5119 48.6603 48.4718 48.6653 48.4332 48.6573C48.4403 48.6448 48.4482 48.6329 48.457 48.6215C48.4879 48.5667 48.5188 48.5142 48.5521 48.4617C48.5854 48.4093 48.6258 48.3449 48.6638 48.2852C48.7019 48.2256 48.7684 48.1302 48.8255 48.0467C48.832 48.0401 48.8357 48.0311 48.8357 48.0217C48.8357 48.0123 48.832 48.0033 48.8255 47.9967C48.8112 47.9837 48.7924 47.9768 48.7732 47.9776C48.9658 47.7957 49.1779 47.6358 49.4056 47.5006C49.3794 47.5006 49.3438 47.5006 49.3628 47.4648C49.3818 47.429 49.4056 47.3957 49.427 47.3599L49.4413 47.3265L49.4127 47.2979C49.3496 47.3337 49.29 47.3752 49.2344 47.4219C49.1441 47.503 49.0727 47.6604 48.9372 47.6604H48.8802C48.8657 47.6589 48.8519 47.654 48.8398 47.6461C48.8452 47.6345 48.8515 47.6233 48.8588 47.6127L48.8754 47.5817L48.8897 47.5555L48.9158 47.5078L48.9372 47.472C48.9515 47.4434 48.9681 47.4171 48.9848 47.3885L49.0086 47.348L49.049 47.2812C49.068 47.2478 49.049 47.2239 49.0204 47.212C49.0897 47.1203 49.1771 47.044 49.2772 46.9878C49.4199 46.9139 49.5649 46.8257 49.7099 46.7493L49.7717 46.6945C49.5599 46.7672 49.3585 46.8674 49.1726 46.9926C49.1498 47.0009 49.1283 47.0121 49.1084 47.026C49.091 47.0299 49.0729 47.0289 49.0561 47.023C49.0393 47.0171 49.0244 47.0065 49.0133 46.9926C49.0105 46.9833 49.0105 46.9733 49.0133 46.964C49.0513 46.8877 49.1631 46.8495 49.2511 46.7756C49.2891 46.7756 49.3248 46.7756 49.3248 46.8137C50.5325 45.8598 52.1777 46.0983 53.5828 45.6046L53.9228 45.3661C54.1106 45.2922 54.2604 45.1037 54.4887 44.9893C54.7922 44.7783 55.0172 44.4721 55.1282 44.1188C55.1237 44.0907 55.1104 44.0648 55.0902 44.0448C54.6145 44.5574 54.0508 44.9799 53.4259 45.2922C52.6342 45.7071 51.7617 45.6308 50.9391 45.7453C50.9771 45.669 51.0508 45.669 51.1269 45.669C51.1269 45.5569 51.203 45.5187 51.2791 45.4424H51.3908C51.4288 45.4424 51.4288 45.3661 51.4669 45.3661C51.5406 45.3661 51.6547 45.3303 51.6167 45.3303C51.5049 45.1777 51.2791 45.4424 51.0889 45.3303C51.1649 45.254 51.1269 45.1395 51.203 45.1037H51.3528C51.3608 45.0459 51.3875 44.9923 51.4288 44.9511C51.9947 44.6101 52.5225 44.3477 53.0479 44.0448C52.9362 44.0448 52.8601 44.1569 52.7483 44.083C52.822 44.083 52.7483 43.9685 52.822 43.9685C53.2381 43.8564 53.5757 43.6275 53.9918 43.4772C53.8396 43.4772 53.7279 43.5917 53.5757 43.4772C53.6518 43.4391 53.6898 43.3651 53.8135 43.3651V43.2507C53.8135 43.2125 53.8515 43.2125 53.8895 43.2125C53.8607 43.2085 53.834 43.1951 53.8135 43.1743C53.8515 43.1004 53.9656 43.1362 54.0512 43.0622C54.0155 43.0622 53.9395 43.0622 53.9395 43.0241C54.0691 42.8904 54.2436 42.8096 54.4292 42.7975C54.3912 42.7212 54.2771 42.7975 54.2771 42.7212C54.2771 42.683 54.3151 42.683 54.3531 42.683H54.2771C54.2034 42.6449 54.2414 42.571 54.2414 42.5328C54.4792 42.2681 54.4792 41.927 54.579 41.6265C54.541 41.6265 54.5053 41.6265 54.5053 41.5884C54.1273 42.0033 53.5258 42.1536 52.9599 42.3038H52.7555C52.6519 42.3436 52.5411 42.3608 52.4304 42.3542C52.3197 42.3476 52.2117 42.3175 52.1136 42.2657C51.977 42.1722 51.8497 42.066 51.7332 41.9485C51.4351 41.7603 51.1159 41.6082 50.7822 41.4953C49.846 41.1885 48.8636 41.048 47.8792 41.0804C48.2953 40.8419 48.7518 40.8419 49.1987 40.7012C49.8383 40.5128 50.4422 40.2862 51.1198 40.3244C50.9953 40.3053 50.8686 40.3053 50.7441 40.3244C50.2163 40.2862 49.6885 40.4364 49.1227 40.5628C48.747 40.6368 48.4094 40.7894 48.0314 40.8657C47.8055 40.9397 47.6914 41.1662 47.4275 41.1305V41.016C47.8055 40.5628 48.2573 40.1097 48.854 40.062C49.534 39.9475 50.1735 40.062 50.8511 40.1359C51.3325 40.1885 51.8093 40.277 52.2776 40.4007C52.4678 40.4007 52.5153 40.7036 52.6556 40.7417C52.8934 40.818 53.1073 40.7417 53.3332 40.892C53.3332 40.818 53.2952 40.7417 53.3332 40.6654C53.4854 40.5151 53.6732 40.7036 53.823 40.6272C54.1249 40.4388 53.5591 40.1002 53.4093 39.8354C53.4133 39.8065 53.4267 39.7797 53.4473 39.7591C53.7469 40.0238 53.9751 40.3267 54.3508 40.5151C54.5386 40.5915 54.9903 40.7036 54.9166 40.477C54.7288 40.062 54.3508 39.721 54.0488 39.3441V39.1915C53.9751 39.1915 53.9751 39.1534 53.9371 39.1176V38.9649C53.7849 38.8886 53.823 38.7384 53.7469 38.6263C53.6351 38.4355 53.7112 38.1708 53.6351 37.9442C53.5662 37.7353 53.516 37.5206 53.4854 37.3026C53.3974 36.6563 53.2452 36.0911 53.1596 35.4853C53.0836 34.7699 53.5733 34.1999 53.9133 33.5583C54.1586 33.0729 54.5216 32.6571 54.9689 32.3492C55.1169 31.8992 55.3602 31.4867 55.6822 31.14C56.0084 30.8039 56.4057 30.5455 56.8448 30.384C57.1752 30.2377 57.5133 30.1095 57.8576 30H32V50H50.3067C51.0199 49.4825 51.7332 49.2368 52.7412 48.7408C53.2191 48.507 54.3008 48.011 54.667 47.6485ZM48.8802 44.9344C48.8065 44.9344 48.6424 44.9726 48.6923 44.8963C48.7304 44.7078 48.9943 44.7078 49.1441 44.6315C49.2201 44.5934 49.3319 44.5194 49.408 44.5576C49.484 44.6697 49.5958 44.6315 49.6719 44.7078C49.4389 44.9344 49.1369 44.8223 48.8802 44.9344ZM43.11 44.1021C43.0892 44.0826 43.0758 44.0564 43.072 44.0281C43.5346 43.4262 43.9383 42.7809 44.2773 42.1011C44.7554 41.8182 45.1856 41.4608 45.5517 41.0422C46.1455 40.3596 46.8606 39.7935 47.6605 39.3728C47.9814 39.2713 48.3274 39.2839 48.64 39.4085C48.5283 39.5612 48.3381 39.523 48.1883 39.647C48.1679 39.6495 48.1471 39.6477 48.1274 39.6415C48.1077 39.6353 48.0896 39.625 48.0742 39.6113C48.0886 39.5962 48.0995 39.5781 48.1061 39.5583C48.1127 39.5385 48.1148 39.5175 48.1122 39.4968C47.7366 39.9118 47.2088 40.1026 46.9069 40.5938C46.6881 40.9707 46.5383 41.4477 46.0486 41.5717C45.8964 41.6098 46.0866 41.4572 46.0105 41.4953C44.8384 42.2132 44.0134 43.0837 43.11 44.1021ZM46.2364 41.6098C46.1984 41.6838 46.1579 41.6933 46.1223 41.7601C46.0938 41.8279 46.0401 41.8818 45.9725 41.9103C45.9345 41.9103 45.8964 41.9103 45.8964 41.8722C45.9147 41.795 45.9519 41.7236 46.0046 41.6645C46.0573 41.6053 46.1239 41.5603 46.1984 41.5335C46.2364 41.5335 46.2364 41.5717 46.2364 41.6098ZM47.9862 47.2716C47.9637 47.3146 47.932 47.352 47.8935 47.3813C47.9411 47.3813 47.9743 47.4124 47.9434 47.441C47.8631 47.5261 47.7659 47.5935 47.6581 47.6389C47.6384 47.6417 47.6184 47.6417 47.5987 47.6389C47.5535 47.6842 47.506 47.7272 47.4584 47.7701C47.4109 47.813 47.2064 47.7701 47.2706 47.7248C47.3348 47.6795 47.4537 47.5483 47.5488 47.4624C47.6011 47.4124 47.6581 47.367 47.7057 47.3122C47.7289 47.2802 47.756 47.2514 47.7865 47.2263C47.8174 47.2144 48.0171 47.1977 47.9862 47.2716ZM47.311 46.9592C47.1708 47.0594 47.0305 47.1596 46.8807 47.2454C46.7309 47.3313 46.5502 47.4124 46.3838 47.4839C46.3766 47.4741 46.3662 47.4673 46.3544 47.4646C46.3426 47.462 46.3302 47.4638 46.3196 47.4696C46.1809 47.5478 46.0537 47.645 45.9416 47.7582C45.923 47.7744 45.9055 47.792 45.8893 47.8106L45.837 47.8631C45.8108 47.8893 45.7847 47.9156 45.7538 47.9513C45.741 47.9722 45.724 47.99 45.7038 48.0038C45.6801 48.0181 45.6159 48.0181 45.623 47.9752L45.5564 48.0086C45.5359 48.0183 45.516 48.0294 45.497 48.042C45.4885 48.0395 45.4794 48.0395 45.4708 48.042C45.4624 48.0387 45.4531 48.0387 45.4447 48.042C45.3971 48.0777 45.352 48.1159 45.3068 48.1565C45.2278 48.2294 45.1554 48.3092 45.0905 48.3949L45.0786 48.4093V48.4259L45.0524 48.4617C45.0439 48.4702 45.0332 48.476 45.0215 48.4784L45.0072 48.4546C45.0027 48.4486 44.9988 48.4422 44.9954 48.4355C44.9954 48.4164 44.974 48.3973 44.9644 48.3759C44.9636 48.3695 44.9636 48.3631 44.9644 48.3568C45.0049 48.3139 45.0429 48.2685 45.0833 48.2208L45.1214 48.1731L45.1237 48.1254L45.1451 48.0968C45.1879 48.042 45.226 47.9895 45.264 47.937L45.2807 47.9132C45.2997 47.887 45.3163 47.8583 45.333 47.8321C45.3478 47.8074 45.3613 47.782 45.3734 47.7558V47.7415L45.409 47.6532C45.4081 47.6445 45.4081 47.6357 45.409 47.627C45.4083 47.6135 45.4083 47.6 45.409 47.5865L45.4233 47.5316C45.4252 47.5275 45.4262 47.523 45.4262 47.5185C45.4262 47.514 45.4252 47.5095 45.4233 47.5054C45.4666 47.4323 45.5167 47.3637 45.5731 47.3003L45.5564 47.3122C45.5018 47.3456 45.4661 47.3957 45.4162 47.4314C45.3662 47.4672 45.2997 47.4124 45.3472 47.3766C45.3774 47.3522 45.4059 47.3259 45.4328 47.2979C45.4928 47.2302 45.5571 47.1664 45.6254 47.1071C45.6682 47.0761 45.7062 47.0475 45.7395 47.0188C45.7462 47.0146 45.7519 47.0089 45.7561 47.0021C45.7827 46.9687 45.8113 46.9368 45.8417 46.9067C46.2007 46.5562 46.8094 46.5729 47.2849 46.3511C47.4727 46.2747 47.6986 46.3868 47.8864 46.3511C48.0046 46.3398 48.1234 46.3656 48.2264 46.425C47.9292 46.5562 47.6201 46.766 47.311 46.9592ZM48.0813 44.3358C48.0457 44.2976 48.1954 44.3358 48.2335 44.2595H47.9292C47.8911 44.2595 47.8911 44.2213 47.8911 44.1832C47.7033 44.2213 47.4774 44.2976 47.2896 44.3358C47.0257 44.4097 46.7999 44.5981 46.4979 44.6745C46.0842 44.8271 45.7443 45.1658 45.2925 45.3184C45.2545 45.3184 45.2545 45.2802 45.2545 45.2421C45.2925 45.1276 45.4423 45.0918 45.5184 44.9773C45.5184 44.9392 45.5184 44.901 45.4804 44.901C45.7823 44.486 46.1936 44.2595 46.574 43.9184V43.8063C46.6857 43.6537 46.8736 43.5798 46.9496 43.389C47.0268 43.231 47.1625 43.1095 47.3277 43.0503C47.2896 43.0122 47.2135 43.0122 47.2135 42.9358C47.0638 42.9358 46.9116 43.0122 46.7618 42.8977C46.8285 42.8337 46.9103 42.7877 46.9996 42.7641C46.9651 42.7574 46.9345 42.7378 46.914 42.7093C46.8759 42.633 46.9877 42.5495 47.1018 42.5209C47.254 42.4827 47.4418 42.4827 47.5559 42.3682C47.292 42.3325 46.9901 42.4446 46.7262 42.2943C46.8882 41.8086 47.2282 41.4029 47.6772 41.1591C47.7152 41.1591 47.7913 41.1591 47.7913 41.1972C47.7945 41.2862 47.7658 41.3734 47.7104 41.443C47.655 41.5126 47.5766 41.5599 47.4893 41.5764C47.7986 41.6146 48.102 41.6907 48.3928 41.803C48.3547 41.8769 48.281 41.8412 48.243 41.8412C48.4308 41.9533 48.6567 41.8769 48.8445 42.0296C48.7328 42.1417 48.6068 42.0296 48.5069 42.0296C49.6742 42.3682 50.9177 42.633 51.8972 43.389C51.0697 43.7676 50.196 44.0347 49.2986 44.1832C49.1965 44.1895 49.094 44.1766 48.9967 44.145C48.9967 44.1832 48.9967 44.2595 48.9586 44.2595C48.8285 44.2438 48.6968 44.2706 48.583 44.3358C48.5072 44.382 48.4201 44.406 48.3315 44.4052C48.2428 44.4043 48.1562 44.3787 48.0813 44.331V44.3358Z" fill="#000091"/>
<path d="M32.1636 74V59.2959H36.6548C38.2749 59.2959 39.5498 59.689 40.4795 60.4751C41.416 61.2544 41.8843 62.3242 41.8843 63.6846C41.8843 64.5596 41.6792 65.3218 41.269 65.9712C40.8657 66.6206 40.2881 67.1265 39.5361 67.4888L44.1504 74H40.582L36.6753 68.0527H35.1475V74H32.1636ZM35.1475 65.52H36.8291C37.458 65.52 37.9468 65.3594 38.2954 65.0381C38.644 64.71 38.8184 64.2451 38.8184 63.6436C38.8184 63.083 38.644 62.6421 38.2954 62.3208C37.9468 61.9995 37.458 61.8389 36.8291 61.8389H35.1475V65.52ZM46.0014 74V59.2959H54.5737V61.8389H48.9853V65.2432H53.7329V67.7861H48.9853V71.457H54.5737V74H46.0014ZM48.9033 58.0449L51.2719 55.2046H54.3379L51.6103 58.0449H48.9033ZM58.0346 74V59.2959H62.8847C64.498 59.2959 65.7695 59.689 66.6991 60.4751C67.6288 61.2544 68.0937 62.3242 68.0937 63.6846C68.0937 65.0381 67.6288 66.1045 66.6991 66.8838C65.7695 67.6631 64.498 68.0527 62.8847 68.0527H61.0185V74H58.0346ZM61.0185 65.52H63.0077C63.6435 65.52 64.1391 65.356 64.4946 65.0278C64.85 64.6997 65.0278 64.2383 65.0278 63.6436C65.0278 63.083 64.8466 62.6421 64.4843 62.3208C64.1288 61.9995 63.6366 61.8389 63.0077 61.8389H61.0185V65.52ZM70.3036 68.2476V59.2959H73.2875V68.4937C73.2875 69.478 73.5507 70.2471 74.077 70.8008C74.6034 71.3545 75.3348 71.6313 76.2714 71.6313C77.1874 71.6313 77.9086 71.3545 78.4349 70.8008C78.9613 70.2471 79.2245 69.478 79.2245 68.4937V59.2959H82.2084V68.2476C82.2084 70.1753 81.6786 71.686 80.619 72.7798C79.5595 73.8735 78.1034 74.4204 76.2509 74.4204C74.412 74.4204 72.9594 73.8735 71.8929 72.7798C70.8334 71.686 70.3036 70.1753 70.3036 68.2476ZM85.9154 74V59.2959H90.0887C91.62 59.2959 92.8231 59.6514 93.6981 60.3623C94.5731 61.0732 95.0106 62.0508 95.0106 63.2949C95.0106 64.5049 94.4911 65.4688 93.452 66.1865C94.2313 66.5352 94.8294 67.0103 95.2464 67.6118C95.6634 68.2134 95.8719 68.9004 95.8719 69.6729C95.8719 71.0127 95.3831 72.0688 94.4056 72.8413C93.4349 73.6138 92.1019 74 90.4066 74H85.9154ZM88.8993 71.457H90.5809C91.2713 71.457 91.8148 71.2861 92.2113 70.9443C92.6078 70.5957 92.806 70.1172 92.806 69.5088C92.806 68.9004 92.6078 68.4321 92.2113 68.104C91.8216 67.7759 91.2782 67.6118 90.5809 67.6118H88.8993V71.457ZM88.8993 65.0586H90.1605C90.7279 65.0586 91.1654 64.9185 91.473 64.6382C91.7874 64.3579 91.9447 63.958 91.9447 63.4385C91.9447 62.9395 91.7874 62.5498 91.473 62.2695C91.1654 61.9824 90.7279 61.8389 90.1605 61.8389H88.8993V65.0586ZM98.9124 74V59.2959H101.896V71.293H107.485V74H98.9124ZM110.105 74V59.2959H113.089V74H110.105ZM116.509 69.6421C116.126 68.6919 115.934 67.6938 115.934 66.6479C115.934 65.6021 116.126 64.6074 116.509 63.6641C116.891 62.7139 117.418 61.8867 118.088 61.1826C118.764 60.4785 119.592 59.918 120.569 59.501C121.553 59.084 122.613 58.8755 123.748 58.8755C124.876 58.8755 125.928 59.084 126.906 59.501C127.89 59.918 128.717 60.4785 129.387 61.1826C130.057 61.8867 130.584 62.7139 130.967 63.6641C131.349 64.6074 131.541 65.6021 131.541 66.6479C131.541 67.8716 131.284 69.02 130.772 70.0933C130.259 71.1665 129.548 72.062 128.639 72.7798L129.521 73.6206C130.56 74.5571 131.589 75.0254 132.607 75.0254C133.031 75.0254 133.383 74.9707 133.663 74.8613V77.3838C133.198 77.5615 132.679 77.6504 132.105 77.6504C130.519 77.6504 128.988 77.0078 127.511 75.7227L125.768 74.1641C125.118 74.335 124.445 74.4204 123.748 74.4204C122.613 74.4204 121.553 74.2119 120.569 73.7949C119.592 73.3779 118.764 72.8174 118.088 72.1133C117.418 71.4092 116.891 70.5854 116.509 69.6421ZM120.343 63.1001C119.448 64.0503 119 65.2329 119 66.6479C119 68.063 119.448 69.249 120.343 70.2061C121.239 71.1562 122.374 71.6313 123.748 71.6313C124.65 71.6313 125.46 71.4126 126.178 70.9751C126.903 70.5376 127.467 69.9395 127.87 69.1807C128.273 68.4219 128.475 67.5776 128.475 66.6479C128.475 65.2329 128.027 64.0503 127.132 63.1001C126.243 62.1499 125.115 61.6748 123.748 61.6748C122.374 61.6748 121.239 62.1499 120.343 63.1001ZM134.14 68.2476V59.2959H137.124V68.4937C137.124 69.478 137.387 70.2471 137.914 70.8008C138.44 71.3545 139.172 71.6313 140.108 71.6313C141.024 71.6313 141.745 71.3545 142.272 70.8008C142.798 70.2471 143.061 69.478 143.061 68.4937V59.2959H146.045V68.2476C146.045 70.1753 145.515 71.686 144.456 72.7798C143.396 73.8735 141.94 74.4204 140.088 74.4204C138.249 74.4204 136.796 73.8735 135.73 72.7798C134.67 71.686 134.14 70.1753 134.14 68.2476ZM149.752 74V59.2959H158.324V61.8389H152.736V65.2432H157.484V67.7861H152.736V71.457H158.324V74H149.752ZM32.1636 96V81.2959H40.7358V83.8389H35.1475V87.2432H39.895V89.7861H35.1475V96H32.1636ZM43.3559 96V81.2959H47.8471C49.4672 81.2959 50.7421 81.689 51.6718 82.4751C52.6084 83.2544 53.0766 84.3242 53.0766 85.6846C53.0766 86.5596 52.8715 87.3218 52.4614 87.9712C52.0581 88.6206 51.4804 89.1265 50.7285 89.4888L55.3427 96H51.7744L47.8676 90.0527H46.3398V96H43.3559ZM46.3398 87.52H48.0214C48.6504 87.52 49.1391 87.3594 49.4878 87.0381C49.8364 86.71 50.0107 86.2451 50.0107 85.6436C50.0107 85.083 49.8364 84.6421 49.4878 84.3208C49.1391 83.9995 48.6504 83.8389 48.0214 83.8389H46.3398V87.52ZM55.9838 96L61.5414 81.2959H65.4482L71.016 96H67.8476L66.4428 92.1753H60.5571L59.1523 96H55.9838ZM61.4799 89.6323H65.5199L63.4999 84.1157L61.4799 89.6323ZM73.2875 96V81.2959H77.1122L83.6849 91.8164V81.2959H86.6688V96H82.8441L76.2714 85.4385V96H73.2875ZM89.5145 88.6479C89.5145 87.6021 89.7059 86.6074 90.0887 85.6641C90.4715 84.7139 90.9979 83.8867 91.6678 83.1826C92.3446 82.4785 93.1717 81.918 94.1493 81.501C95.1336 81.084 96.1932 80.8755 97.328 80.8755C98.6268 80.8755 99.8094 81.1421 100.876 81.6753C101.949 82.2085 102.831 82.9365 103.521 83.8594L101.173 85.6846C100.736 85.0625 100.189 84.5737 99.5326 84.2183C98.8763 83.856 98.1414 83.6748 97.328 83.6748C95.9539 83.6748 94.8192 84.1499 93.9237 85.1001C93.0282 86.0503 92.5804 87.2329 92.5804 88.6479C92.5804 90.063 93.0282 91.249 93.9237 92.2061C94.8192 93.1562 95.9539 93.6313 97.328 93.6313C98.1414 93.6313 98.8763 93.4502 99.5326 93.0879C100.189 92.7256 100.736 92.2334 101.173 91.6113L103.521 93.416C102.94 94.209 102.219 94.8618 101.358 95.3745C100.496 95.8804 99.5394 96.2017 98.4867 96.3384L96.6512 99.3838H94.0057L95.8617 96.2974C94.6107 96.0786 93.4998 95.6001 92.5291 94.8618C91.5584 94.1235 90.8133 93.2144 90.2938 92.1343C89.7743 91.0542 89.5145 89.8921 89.5145 88.6479ZM104.162 96L109.72 81.2959H113.627L119.195 96H116.026L114.621 92.1753H108.736L107.331 96H104.162ZM109.658 89.6323H113.699L111.679 84.1157L109.658 89.6323ZM121.466 96V81.2959H124.45V96H121.466ZM127.234 93.9595L129.398 91.9702C129.842 92.5444 130.344 92.9888 130.905 93.3032C131.472 93.6177 132.053 93.7749 132.648 93.7749C133.236 93.7749 133.697 93.6245 134.032 93.3237C134.374 93.0229 134.545 92.606 134.545 92.0728C134.545 91.7651 134.449 91.4814 134.258 91.2217C134.067 90.9619 133.81 90.7466 133.489 90.5757C133.175 90.3979 132.816 90.2134 132.412 90.022C132.009 89.8237 131.599 89.6357 131.182 89.458C130.765 89.2803 130.355 89.0581 129.951 88.7915C129.548 88.5249 129.186 88.2344 128.864 87.9199C128.55 87.6055 128.297 87.209 128.106 86.7305C127.914 86.252 127.819 85.7222 127.819 85.1411C127.819 83.9517 128.259 82.9434 129.141 82.1162C130.03 81.2891 131.158 80.8755 132.525 80.8755C134.576 80.8755 136.292 81.7026 137.673 83.3569L135.488 85.3154C134.545 84.0918 133.564 83.48 132.546 83.48C132.04 83.48 131.63 83.627 131.315 83.9209C131.001 84.2148 130.843 84.5806 130.843 85.0181C130.843 85.2983 130.919 85.5547 131.069 85.7871C131.226 86.0127 131.435 86.2144 131.695 86.3921C131.954 86.563 132.252 86.7305 132.587 86.8945C132.922 87.0518 133.274 87.2158 133.643 87.3867C134.019 87.5508 134.391 87.7251 134.76 87.9097C135.136 88.0942 135.492 88.3164 135.827 88.5762C136.162 88.8291 136.459 89.1128 136.719 89.4272C136.979 89.7349 137.184 90.1108 137.334 90.5552C137.491 90.9927 137.57 91.478 137.57 92.0112C137.55 93.3442 137.074 94.4141 136.145 95.2207C135.222 96.0205 134.07 96.4204 132.689 96.4204C131.486 96.4204 130.444 96.2153 129.562 95.8052C128.687 95.3882 127.911 94.7729 127.234 93.9595ZM140.693 96V81.2959H149.265V83.8389H143.676V87.2432H148.424V89.7861H143.676V93.457H149.265V96H140.693Z" fill="black"/>
<path d="M79.77 136.865C80.1696 136.865 80.5136 137.168 80.33 137.935L78.471 138.367C78.794 137.504 79.3308 136.865 79.7607 136.865H79.77ZM80.7831 139.856H80.4183C79.9535 140.406 79.4609 140.838 78.9659 140.838C78.471 140.838 78.2014 140.537 78.2014 139.856C78.2025 139.58 78.2313 139.306 78.2874 139.036L81.2688 138.054C81.8497 136.672 81.1503 136.068 80.3393 136.068C78.9287 136.068 77.3184 138.432 77.3184 140.497C77.3184 141.43 77.7599 141.933 78.4477 141.933C79.2564 141.933 80.0953 141.145 80.7715 139.849L80.7831 139.856ZM80.1813 135.511L82.2727 133.546V133.313H81.141L79.8513 135.504L80.1813 135.511ZM73.7467 136.891H74.7366L73.1844 141.199C73.0449 141.565 73.2401 141.933 73.6166 141.933C74.5089 141.933 75.952 141.047 76.4562 139.835H76.1774C75.7777 140.257 75.0155 140.819 74.3579 140.938L75.8009 136.889H77.2765L77.4601 136.273H76.0287L76.5771 134.721H76.0078L74.9853 136.273L73.77 136.446L73.7467 136.891ZM72.4105 136.686C72.4402 136.622 72.4542 136.552 72.4515 136.482C72.4487 136.412 72.4292 136.343 72.3946 136.282C72.3601 136.221 72.3114 136.169 72.2527 136.131C72.194 136.092 72.127 136.068 72.0573 136.061C71.1952 136.061 70.1727 136.837 69.7638 137.926H70.0728C70.3517 137.527 70.8257 137.085 71.2672 137.008L69.6081 141.313C69.5755 141.377 69.5593 141.448 69.5609 141.519C69.5624 141.591 69.5817 141.661 69.617 141.723C69.6522 141.785 69.7024 141.838 69.7629 141.875C69.8234 141.913 69.8924 141.936 69.9636 141.94C70.7816 141.94 71.739 141.152 72.1479 140.075H71.8691C71.5879 140.474 71.1139 140.917 70.6747 140.991L72.4105 136.686ZM72.7126 134.527C72.8059 134.528 72.8983 134.51 72.9846 134.474C73.0708 134.438 73.1492 134.386 73.2153 134.32C73.2814 134.254 73.3338 134.175 73.3695 134.089C73.4053 134.003 73.4237 133.91 73.4237 133.816C73.4237 133.627 73.3488 133.446 73.2154 133.312C73.0821 133.178 72.9012 133.103 72.7126 133.103C72.524 133.103 72.3432 133.178 72.2098 133.312C72.0765 133.446 72.0016 133.627 72.0016 133.816C72 133.91 72.0173 134.004 72.0525 134.091C72.0877 134.178 72.1401 134.257 72.2064 134.323C72.2728 134.39 72.3519 134.442 72.4388 134.477C72.5258 134.512 72.6189 134.529 72.7126 134.527ZM63.2316 141.134C63.0178 141.621 63.2316 141.933 63.7173 141.933C64.0077 141.933 64.1356 141.856 64.2541 141.544L65.395 138.513C65.9225 137.865 67.0101 137.175 67.44 137.175C67.7514 137.175 67.7095 137.434 67.505 137.823L65.7715 141.199C65.7306 141.274 65.7098 141.359 65.7111 141.444C65.7125 141.53 65.7359 141.614 65.7792 141.688C65.8225 141.762 65.8841 141.823 65.9581 141.866C66.0321 141.909 66.1159 141.932 66.2014 141.933C67.0635 141.933 68.086 141.155 68.495 140.068H68.2138C67.9349 140.467 67.4609 140.91 67.0194 140.984L68.5252 137.931C68.7001 137.608 68.8002 137.251 68.818 136.884C68.8296 136.775 68.8172 136.665 68.7815 136.562C68.7459 136.458 68.688 136.364 68.6118 136.286C68.5357 136.207 68.4433 136.147 68.3411 136.108C68.239 136.07 68.1296 136.055 68.0209 136.064C67.2773 136.064 66.5244 136.905 65.6321 137.94V137.143C65.6321 136.569 65.4485 136.064 64.9349 136.064C64.6119 136.064 64.3005 136.343 64.0054 136.742V136.851C64.5631 136.819 64.8118 137.66 64.4144 138.546L63.2316 141.134ZM63.2107 137.378C63.4152 136.679 63.3083 136.061 62.7692 136.061C62.1348 136.061 61.9744 136.546 61.3284 137.938V137.14C61.3284 136.567 61.1449 136.061 60.6313 136.061C60.0294 136.061 59.4694 136.994 59.0604 137.926H59.3393C59.6297 137.504 59.8993 137.257 60.1154 137.257C60.3734 137.257 60.5128 137.656 60.1154 138.541L58.9535 141.131C58.7397 141.618 58.9535 141.931 59.4392 141.931C59.7297 141.931 59.8575 141.854 59.976 141.541L61.117 138.511C61.44 138.113 61.7304 137.765 62.0976 137.378H63.2107ZM56.6042 136.858C57.0016 136.858 57.3478 137.161 57.1642 137.928L55.3052 138.36C55.6282 137.497 56.1673 136.858 56.5972 136.858H56.6042ZM57.6197 139.849H57.292C56.8273 140.399 56.3346 140.831 55.8397 140.831C55.3447 140.831 55.0775 140.53 55.0775 139.849C55.0774 139.573 55.1062 139.298 55.1634 139.029L58.1425 138.047C58.7235 136.665 58.024 136.061 57.213 136.061C55.8048 136.061 54.1921 138.425 54.1921 140.49C54.1921 141.423 54.6336 141.926 55.3215 141.926C56.1278 141.926 56.969 141.138 57.6452 139.842L57.6197 139.849ZM50.6205 136.898H51.6104L50.0395 141.199C49.9001 141.565 50.093 141.933 50.4694 141.933C51.3641 141.933 52.7932 141.047 53.3114 139.835H53.0302C52.6328 140.257 51.8683 140.819 51.213 140.938L52.6445 136.898H54.1201L54.3013 136.283H52.8768L53.4253 134.73H52.8583L51.8358 136.283L50.6205 136.455V136.898ZM45.1875 140.266C45.1875 138.94 46.6607 137.138 47.4903 137.138C47.6605 137.136 47.83 137.158 47.9946 137.201L47.1348 139.502C46.6398 140.106 45.8753 140.84 45.5081 140.84C45.3036 140.84 45.1758 140.667 45.1758 140.266H45.1875ZM49.7049 135.837L49.2541 135.805L48.7475 136.301H48.6406C46.1867 136.301 44.0674 139.066 44.0674 141.073C44.0568 141.192 44.0722 141.311 44.1127 141.424C44.1531 141.536 44.2176 141.638 44.3016 141.722C44.3856 141.807 44.487 141.872 44.5987 141.912C44.7104 141.953 44.8296 141.969 44.9481 141.959C45.5848 141.959 46.2076 141.052 46.907 140.08L46.8745 140.425C46.7885 141.418 47.0906 141.959 47.6065 141.959C48.2084 141.959 48.7684 141.026 49.1774 140.094H48.8985C48.6197 140.5 48.3501 140.733 48.134 140.733C47.9179 140.733 47.7483 140.322 48.134 139.448L49.7049 135.837ZM44.4764 137.404C44.6809 136.705 44.5717 136.087 44.0349 136.087C43.4005 136.087 43.2378 136.572 42.5918 137.963V137.166C42.5918 136.593 42.4105 136.087 41.8947 136.087C41.2928 136.087 40.7328 137.019 40.3238 137.952H40.605C40.8954 137.53 41.1627 137.283 41.3788 137.283C41.6367 137.283 41.7761 137.681 41.3788 138.567L40.2169 141.157C40.0008 141.644 40.2169 141.956 40.7002 141.956C40.7635 141.967 40.8283 141.966 40.8908 141.951C40.9534 141.936 41.0124 141.909 41.0643 141.872C41.1163 141.834 41.1602 141.786 41.1935 141.731C41.2267 141.676 41.2486 141.615 41.2579 141.551L42.3989 138.52C42.7219 138.122 43.0124 137.775 43.3772 137.388L44.4764 137.404ZM36.2455 141.723L36.3524 141.39C34.921 141.12 34.7258 141.12 35.3091 139.553L35.89 137.945H37.4725C38.1813 137.945 38.1929 138.236 38.0837 139.015H38.4926L39.4407 136.413H39.0318C38.6762 137.029 38.3974 137.481 37.6212 137.481H36.062L36.8892 135.203C37.1495 134.481 37.2982 134.329 38.2672 134.329H38.9644C39.9636 134.329 40.0821 134.6 40.0821 135.614H40.4795L40.8141 133.844H34.8675L34.7514 134.178C35.9016 134.411 36.0085 134.525 35.4717 136.015L34.189 139.553C33.6522 141.033 33.4245 141.152 32.0976 141.39L32 141.723H36.2455Z" fill="black"/>
<path d="M65.3625 123.373C65.7599 123.373 66.1061 123.676 65.9226 124.441L64.0635 124.874C64.3865 124.01 64.9256 123.373 65.3555 123.373H65.3625ZM66.378 126.364H66.0132C65.5484 126.914 65.0535 127.345 64.5585 127.345C64.0635 127.345 63.7963 127.042 63.7963 126.364C63.7972 126.088 63.826 125.813 63.8823 125.543L66.8614 124.56C67.4423 123.18 66.7428 122.574 65.9318 122.574C64.5236 122.574 62.9109 124.937 62.9109 127.003C62.9109 127.935 63.3524 128.436 64.0403 128.436C64.8466 128.436 65.6878 127.648 66.3641 126.355L66.378 126.364ZM65.7715 122.014L67.8629 120.049V119.816H66.7336L65.4415 122.007L65.7715 122.014ZM59.337 123.397H60.3269L58.756 127.704C58.6166 128.07 58.8095 128.436 59.1859 128.436C60.0806 128.436 61.5213 127.553 62.0279 126.338H61.7467C61.3493 126.76 60.5848 127.32 59.9295 127.439L61.3703 123.392H62.8691L63.0527 122.777H61.6212L62.1696 121.222H61.598L60.5755 122.777L59.3602 122.949L59.337 123.397ZM58.0031 123.191C58.0327 123.127 58.0467 123.057 58.0438 122.987C58.0409 122.916 58.0212 122.847 57.9864 122.786C57.9516 122.725 57.9027 122.673 57.8438 122.634C57.7848 122.595 57.7176 122.572 57.6476 122.564C56.7878 122.564 55.7653 123.343 55.3563 124.429H55.6654C55.9466 124.031 56.4183 123.588 56.8598 123.513L55.2006 127.821C55.168 127.884 55.1517 127.955 55.1532 128.027C55.1547 128.098 55.174 128.168 55.2094 128.23C55.2447 128.292 55.2949 128.344 55.3555 128.382C55.416 128.42 55.485 128.442 55.5562 128.446C56.3741 128.446 57.3315 127.658 57.7405 126.581H57.4593C57.1805 126.982 56.7064 127.425 56.2649 127.499L58.0031 123.191ZM58.3052 121.033C58.4458 121.033 58.5833 120.991 58.7002 120.913C58.8172 120.834 58.9083 120.723 58.9621 120.593C59.016 120.462 59.03 120.319 59.0026 120.18C58.9752 120.042 58.9074 119.915 58.808 119.815C58.7086 119.715 58.5819 119.648 58.4439 119.62C58.306 119.592 58.163 119.607 58.0331 119.661C57.9031 119.715 57.7921 119.806 57.714 119.923C57.6358 120.041 57.5941 120.179 57.5941 120.32C57.5938 120.413 57.612 120.506 57.6476 120.593C57.6832 120.68 57.7356 120.758 57.8017 120.825C57.8678 120.891 57.9463 120.943 58.0327 120.979C58.1191 121.015 58.2117 121.033 58.3052 121.033ZM52.6003 127.497L55.6026 119.606L55.505 119.487L53.6228 119.704V119.937L53.9899 120.217C54.3222 120.476 54.2223 120.725 53.9132 121.525L51.5686 127.714C51.5275 127.789 51.5065 127.873 51.5078 127.959C51.5091 128.045 51.5326 128.129 51.576 128.202C51.6193 128.276 51.6811 128.337 51.7551 128.38C51.8292 128.423 51.9131 128.445 51.9985 128.446C52.8583 128.446 53.7738 127.669 54.1828 126.581H53.9016C53.5839 127.026 53.1252 127.35 52.6003 127.499V127.497ZM46.8978 126.765C46.8978 125.436 48.371 123.634 49.2006 123.634C49.3717 123.632 49.5422 123.654 49.7072 123.7L48.8451 125.998C48.3501 126.604 47.5856 127.336 47.2324 127.336C47.0279 127.336 46.8978 127.164 46.8978 126.765ZM51.4268 122.336L50.976 122.303L50.4694 122.784H50.3625C47.9086 122.784 45.7893 125.553 45.7893 127.562C45.779 127.681 45.7948 127.801 45.8355 127.913C45.8763 128.025 45.941 128.126 46.0252 128.211C46.1094 128.295 46.211 128.36 46.3228 128.4C46.4346 128.441 46.5539 128.456 46.6724 128.446C47.3067 128.446 47.9318 127.539 48.6313 126.569L48.5988 126.914C48.5128 127.907 48.8126 128.446 49.3284 128.446C49.9326 128.446 50.4903 127.513 50.9016 126.581H50.6205C50.33 127.003 50.0604 127.25 49.8466 127.25C49.6328 127.25 49.4586 126.84 49.8466 125.965L51.4268 122.336ZM40.4725 129.495C40.4725 128.921 41.0232 128.562 41.8087 128.252C42.186 128.425 42.5741 128.573 42.9706 128.695C43.7885 128.965 44.0999 129.073 44.0999 129.322C44.0999 129.849 43.2076 130.255 41.9899 130.255C40.9698 130.255 40.4725 130.038 40.4725 129.499V129.495ZM42.701 126.003C42.3455 126.003 42.206 125.7 42.206 125.355C42.206 124.394 42.7219 122.979 43.5306 122.979C43.8838 122.979 44.0256 123.282 44.0256 123.627C44.0256 124.588 43.5074 126.003 42.701 126.003ZM45.0248 128.961C45.0248 128.261 44.4113 128.028 43.4098 127.718C42.55 127.46 42.1619 127.385 42.1619 127.103C42.1619 126.87 42.3455 126.606 42.7103 126.404C43.3261 126.358 43.9035 126.086 44.3321 125.64C44.7608 125.194 45.0107 124.605 45.0341 123.986C45.0362 123.782 44.9959 123.58 44.9156 123.392H46.11L46.2913 122.777H44.4113C44.1819 122.635 43.9182 122.56 43.6491 122.56C43.0121 122.567 42.4019 122.818 41.9435 123.262C41.4851 123.706 41.2132 124.308 41.1836 124.947C41.1691 125.284 41.2766 125.615 41.4863 125.879C41.6959 126.143 41.9937 126.322 42.3246 126.383C41.6274 126.695 41.237 127.061 41.237 127.495C41.233 127.608 41.2575 127.721 41.3082 127.823C41.359 127.925 41.4344 128.012 41.5275 128.077C39.9148 128.544 39.2781 129.091 39.2781 129.858C39.2781 130.625 40.2587 130.942 41.4206 130.942C43.3888 130.942 45.0364 129.872 45.0364 128.977L45.0248 128.961ZM37.5143 124.345C38.2254 124.345 38.2347 124.637 38.1278 125.413H38.5368L39.4826 122.811H39.0759C38.7204 123.427 38.4392 123.881 37.6654 123.881H36.1038L36.8892 121.711C37.1495 120.989 37.2982 120.846 38.2672 120.846H38.9644C39.9636 120.846 40.0821 121.117 40.0821 122.122H40.4795L40.8141 120.35H34.8675L34.7514 120.686C35.9016 120.919 36.0085 121.031 35.4717 122.52L34.189 126.061C33.6522 127.539 33.4245 127.658 32.0976 127.896L32 128.231H38.6112L39.7963 126.352H39.3431C38.5902 127.066 37.6445 127.751 36.3222 127.751C34.5678 127.751 34.7304 127.676 35.3114 126.068L35.9342 124.352L37.5143 124.345ZM38.3765 119.823L40.4679 118.376V118.142H39.2037L38.0418 119.816L38.3765 119.823Z" fill="black"/>
<path d="M64.6631 109.881C65.0604 109.881 65.4067 110.182 65.2231 110.949L63.3641 111.38C63.6871 110.518 64.2262 109.881 64.6561 109.881H64.6631ZM65.6785 112.87H65.3114C64.8466 113.422 64.354 113.853 63.859 113.853C63.3641 113.853 63.0968 113.55 63.0968 112.87C63.0969 112.594 63.1258 112.319 63.1828 112.049L66.1619 111.068C66.7428 109.685 66.0434 109.082 65.2324 109.082C63.8242 109.082 62.2115 111.445 62.2115 113.511C62.2115 114.443 62.653 114.947 63.3408 114.947C64.1472 114.947 64.9884 114.159 65.6762 112.863L65.6785 112.87ZM65.0837 108.525L67.1751 106.559V106.326H66.0457L64.7537 108.518L65.0837 108.525ZM58.9187 109.914H59.7041L58.1332 114.219C57.9938 114.588 58.1867 114.954 58.5631 114.954C59.4555 114.954 60.8869 114.068 61.4051 112.856H61.1239C60.7266 113.275 59.962 113.837 59.3067 113.956L60.7475 109.909H62.2231L62.4043 109.294H60.9729L61.5236 107.739H60.952L59.9295 109.294L58.9187 109.466V109.914ZM58.1448 110.399C58.3493 109.699 58.2401 109.082 57.7033 109.082C57.0666 109.082 56.9063 109.567 56.2603 110.96V110.161C56.2603 109.59 56.0767 109.082 55.5631 109.082C54.9613 109.082 54.4012 110.014 53.9923 110.946H54.2711C54.5616 110.527 54.8288 110.277 55.0449 110.277C55.3029 110.277 55.4423 110.676 55.0449 111.562L53.883 114.152C53.6669 114.639 53.883 114.951 54.3664 114.951C54.4889 114.968 54.6133 114.937 54.7137 114.865C54.8141 114.792 54.8828 114.684 54.9055 114.562L56.0465 111.532C56.3672 111.133 56.66 110.788 57.0248 110.399H58.1448ZM51.536 109.881C51.9357 109.881 52.2796 110.182 52.0961 110.949L50.237 111.38C50.56 110.518 51.0968 109.881 51.5267 109.881H51.536ZM52.5492 112.87H52.2029C51.7382 113.422 51.2455 113.853 50.7506 113.853C50.2556 113.853 49.9861 113.55 49.9861 112.87C49.9872 112.594 50.016 112.319 50.072 112.049L53.0534 111.068C53.6344 109.685 52.9349 109.082 52.1239 109.082C50.7134 109.082 49.103 111.445 49.103 113.511C49.103 114.443 49.5445 114.947 50.2324 114.947C51.0411 114.947 51.8799 114.159 52.5562 112.863L52.5492 112.87ZM45.2502 114.072C44.9597 114.072 44.5391 113.802 44.5391 113.564C44.6161 113.281 44.7132 113.004 44.8296 112.734L45.3153 111.45C45.8311 110.835 46.6166 110.175 47.0581 110.175C47.3277 110.175 47.5229 110.347 47.5229 110.748C47.5229 111.914 46.4237 114.072 45.2409 114.072H45.2502ZM48.6313 110.273C48.6313 109.399 48.3083 109.075 47.7018 109.075C46.9489 109.075 46.2401 109.874 45.529 110.844L47.3253 106.107L47.2533 106L45.3687 106.214V106.448L45.7359 106.73C46.0682 106.988 45.9682 107.259 45.6592 108.035L43.7235 113.044C43.5938 113.34 43.4896 113.647 43.4121 113.961C43.4121 114.48 44.1092 114.965 44.7459 114.965C46.2099 114.965 48.6522 112.322 48.6522 110.291L48.6313 110.273ZM42.7986 109.72C42.8282 109.656 42.8422 109.586 42.8393 109.516C42.8364 109.445 42.8167 109.376 42.7819 109.315C42.7471 109.254 42.6982 109.201 42.6393 109.163C42.5803 109.124 42.5131 109.1 42.4431 109.093C41.5809 109.093 40.5585 109.87 40.1518 110.958H40.4307C40.7095 110.56 41.1836 110.117 41.6251 110.04L39.9775 114.338C39.9476 114.401 39.9333 114.47 39.9359 114.54C39.9385 114.61 39.9578 114.678 39.9923 114.738C40.0268 114.799 40.0754 114.85 40.134 114.887C40.1925 114.925 40.2592 114.948 40.3284 114.954C41.1464 114.954 42.1038 114.166 42.5128 113.089H42.2339C41.9551 113.485 41.4903 113.926 41.0442 114.005L42.7986 109.72ZM43.0984 107.559C43.193 107.56 43.2869 107.542 43.3745 107.506C43.462 107.47 43.5415 107.417 43.6082 107.35C43.6749 107.282 43.7275 107.202 43.7629 107.114C43.7982 107.026 43.8157 106.932 43.8141 106.837C43.8123 106.648 43.7368 106.468 43.6038 106.334C43.4709 106.201 43.291 106.125 43.103 106.124C43.0098 106.124 42.9174 106.142 42.8313 106.178C42.7451 106.214 42.6669 106.266 42.601 106.333C42.5352 106.399 42.483 106.478 42.4476 106.564C42.4121 106.651 42.394 106.743 42.3943 106.837C42.3927 106.931 42.41 107.024 42.445 107.111C42.4801 107.198 42.5322 107.277 42.5984 107.343C42.6645 107.409 42.7432 107.462 42.8299 107.497C42.9166 107.532 43.0095 107.549 43.103 107.548L43.0984 107.559ZM38.7668 106.849H34.8466L34.7374 107.184C35.8993 107.417 35.9969 107.529 35.4601 109.019L34.189 112.569C33.6522 114.047 33.4245 114.166 32.0976 114.403L32 114.737H37.9675L39.2572 112.429H38.8064C38.0744 113.238 37.2122 114.252 35.89 114.252C34.8885 114.252 34.7699 114.079 35.3091 112.569L36.5778 109.03C37.1053 107.55 37.3424 107.431 38.6692 107.196L38.7668 106.849Z" fill="black"/>
<path d="M217.709 100V74.793H232.404V79.1523H222.824V84.9883H230.963V89.3477H222.824V95.6406H232.404V100H217.709ZM222.684 72.6484L226.744 67.7793H232L227.324 72.6484H222.684ZM236.562 92.5293C235.906 90.9004 235.577 89.1895 235.577 87.3965C235.577 85.6035 235.906 83.8984 236.562 82.2812C237.218 80.6523 238.12 79.2344 239.269 78.0273C240.429 76.8203 241.847 75.8594 243.523 75.1445C245.21 74.4297 247.027 74.0723 248.972 74.0723C251.199 74.0723 253.226 74.5293 255.054 75.4434C256.894 76.3574 258.406 77.6055 259.589 79.1875L255.564 82.3164C254.814 81.25 253.876 80.4121 252.751 79.8027C251.626 79.1816 250.367 78.8711 248.972 78.8711C246.617 78.8711 244.671 79.6855 243.136 81.3145C241.601 82.9434 240.833 84.9707 240.833 87.3965C240.833 89.8223 241.601 91.8555 243.136 93.4961C244.671 95.125 246.617 95.9395 248.972 95.9395C250.367 95.9395 251.626 95.6289 252.751 95.0078C253.876 94.3867 254.814 93.543 255.564 92.4766L259.589 95.5703C258.406 97.1758 256.9 98.4355 255.072 99.3496C253.244 100.264 251.21 100.721 248.972 100.721C247.027 100.721 245.21 100.363 243.523 99.6484C241.847 98.9336 240.429 97.9727 239.269 96.7656C238.12 95.5586 237.218 94.1465 236.562 92.5293ZM262.675 92.5293C262.018 90.9004 261.69 89.1895 261.69 87.3965C261.69 85.6035 262.018 83.8984 262.675 82.2812C263.331 80.6523 264.233 79.2344 265.382 78.0273C266.542 76.8203 267.96 75.8594 269.635 75.1445C271.323 74.4297 273.139 74.0723 275.085 74.0723C277.018 74.0723 278.823 74.4297 280.499 75.1445C282.186 75.8594 283.604 76.8203 284.753 78.0273C285.901 79.2344 286.803 80.6523 287.46 82.2812C288.116 83.8984 288.444 85.6035 288.444 87.3965C288.444 89.1895 288.116 90.9004 287.46 92.5293C286.803 94.1465 285.901 95.5586 284.753 96.7656C283.604 97.9727 282.186 98.9336 280.499 99.6484C278.823 100.363 277.018 100.721 275.085 100.721C273.139 100.721 271.323 100.363 269.635 99.6484C267.96 98.9336 266.542 97.9727 265.382 96.7656C264.233 95.5586 263.331 94.1465 262.675 92.5293ZM269.249 81.3145C267.714 82.9434 266.946 84.9707 266.946 87.3965C266.946 89.8223 267.714 91.8555 269.249 93.4961C270.784 95.125 272.729 95.9395 275.085 95.9395C276.632 95.9395 278.02 95.5645 279.251 94.8145C280.493 94.0645 281.46 93.0391 282.151 91.7383C282.842 90.4375 283.188 88.9902 283.188 87.3965C283.188 84.9707 282.421 82.9434 280.885 81.3145C279.362 79.6855 277.428 78.8711 275.085 78.8711C272.729 78.8711 270.784 79.6855 269.249 81.3145ZM290.756 96.502L294.465 93.0918C295.227 94.0762 296.088 94.8379 297.049 95.377C298.022 95.916 299.018 96.1855 300.037 96.1855C301.045 96.1855 301.836 95.9277 302.41 95.4121C302.996 94.8965 303.289 94.1816 303.289 93.2676C303.289 92.7402 303.125 92.2539 302.797 91.8086C302.469 91.3633 302.029 90.9941 301.479 90.7012C300.94 90.3965 300.324 90.0801 299.633 89.752C298.941 89.4121 298.238 89.0898 297.524 88.7852C296.809 88.4805 296.106 88.0996 295.414 87.6426C294.723 87.1855 294.102 86.6875 293.551 86.1484C293.012 85.6094 292.578 84.9297 292.25 84.1094C291.922 83.2891 291.758 82.3809 291.758 81.3848C291.758 79.3457 292.514 77.6172 294.025 76.1992C295.549 74.7812 297.482 74.0723 299.826 74.0723C303.342 74.0723 306.283 75.4902 308.65 78.3262L304.906 81.6836C303.289 79.5859 301.607 78.5371 299.861 78.5371C298.994 78.5371 298.291 78.7891 297.752 79.293C297.213 79.7969 296.943 80.4238 296.943 81.1738C296.943 81.6543 297.072 82.0938 297.33 82.4922C297.6 82.8789 297.957 83.2246 298.402 83.5293C298.848 83.8223 299.357 84.1094 299.932 84.3906C300.506 84.6602 301.109 84.9414 301.742 85.2344C302.387 85.5156 303.025 85.8145 303.658 86.1309C304.303 86.4473 304.912 86.8281 305.486 87.2734C306.061 87.707 306.57 88.1934 307.016 88.7324C307.461 89.2598 307.813 89.9043 308.07 90.666C308.34 91.416 308.475 92.248 308.475 93.1621C308.44 95.4473 307.625 97.2812 306.031 98.6641C304.449 100.035 302.475 100.721 300.107 100.721C298.045 100.721 296.258 100.369 294.746 99.666C293.246 98.9512 291.916 97.8965 290.756 96.502ZM310.523 100L320.05 74.793H326.747L336.292 100H330.861L328.453 93.4434H318.363L315.955 100H310.523ZM319.945 89.084H326.871L323.408 79.627L319.945 89.084ZM340.186 100V74.793H346.743L358.011 92.8281V74.793H363.126V100H356.569L345.302 81.8945V100H340.186ZM367.565 79.4512V74.793H388.236V79.4512H380.467V100H375.352V79.4512H367.565ZM392.728 100V74.793H407.423V79.1523H397.843V84.9883H405.982V89.3477H397.843V95.6406H407.423V100H392.728ZM397.703 72.6484L401.763 67.7793H407.019L402.343 72.6484H397.703Z" fill="#373C42"/>
</svg>
