<svg width="191" height="34" viewBox="0 0 191 34" fill="none" xmlns="http://www.w3.org/2000/svg">
<path d="M0.708984 33V7.79297H15.4043V12.1523H5.82422V17.9883H13.9629V22.3477H5.82422V28.6406H15.4043V33H0.708984ZM5.68359 5.64844L9.74414 0.779297H15L10.3242 5.64844H5.68359ZM19.5619 25.5293C18.9056 23.9004 18.5775 22.1895 18.5775 20.3965C18.5775 18.6035 18.9056 16.8984 19.5619 15.2812C20.2181 13.6523 21.1205 12.2344 22.2689 11.0273C23.4291 9.82031 24.847 8.85938 26.5228 8.14453C28.2103 7.42969 30.0267 7.07227 31.972 7.07227C34.1986 7.07227 36.2259 7.5293 38.0541 8.44336C39.8939 9.35742 41.4056 10.6055 42.5892 12.1875L38.5638 15.3164C37.8138 14.25 36.8763 13.4121 35.7513 12.8027C34.6263 12.1816 33.3666 11.8711 31.972 11.8711C29.6166 11.8711 27.6712 12.6855 26.1361 14.3145C24.6009 15.9434 23.8334 17.9707 23.8334 20.3965C23.8334 22.8223 24.6009 24.8555 26.1361 26.4961C27.6712 28.125 29.6166 28.9395 31.972 28.9395C33.3666 28.9395 34.6263 28.6289 35.7513 28.0078C36.8763 27.3867 37.8138 26.543 38.5638 25.4766L42.5892 28.5703C41.4056 30.1758 39.8998 31.4355 38.0716 32.3496C36.2435 33.2637 34.2103 33.7207 31.972 33.7207C30.0267 33.7207 28.2103 33.3633 26.5228 32.6484C24.847 31.9336 23.4291 30.9727 22.2689 29.7656C21.1205 28.5586 20.2181 27.1465 19.5619 25.5293ZM45.6745 25.5293C45.0183 23.9004 44.6902 22.1895 44.6902 20.3965C44.6902 18.6035 45.0183 16.8984 45.6745 15.2812C46.3308 13.6523 47.2331 12.2344 48.3816 11.0273C49.5417 9.82031 50.9597 8.85938 52.6355 8.14453C54.323 7.42969 56.1394 7.07227 58.0847 7.07227C60.0183 7.07227 61.823 7.42969 63.4987 8.14453C65.1862 8.85938 66.6042 9.82031 67.7527 11.0273C68.9011 12.2344 69.8034 13.6523 70.4597 15.2812C71.1159 16.8984 71.4441 18.6035 71.4441 20.3965C71.4441 22.1895 71.1159 23.9004 70.4597 25.5293C69.8034 27.1465 68.9011 28.5586 67.7527 29.7656C66.6042 30.9727 65.1862 31.9336 63.4987 32.6484C61.823 33.3633 60.0183 33.7207 58.0847 33.7207C56.1394 33.7207 54.323 33.3633 52.6355 32.6484C50.9597 31.9336 49.5417 30.9727 48.3816 29.7656C47.2331 28.5586 46.3308 27.1465 45.6745 25.5293ZM52.2487 14.3145C50.7136 15.9434 49.946 17.9707 49.946 20.3965C49.946 22.8223 50.7136 24.8555 52.2487 26.4961C53.7839 28.125 55.7292 28.9395 58.0847 28.9395C59.6316 28.9395 61.0202 28.5645 62.2507 27.8145C63.4929 27.0645 64.4597 26.0391 65.1511 24.7383C65.8425 23.4375 66.1882 21.9902 66.1882 20.3965C66.1882 17.9707 65.4206 15.9434 63.8855 14.3145C62.362 12.6855 60.4284 11.8711 58.0847 11.8711C55.7292 11.8711 53.7839 12.6855 52.2487 14.3145ZM73.7559 29.502L77.4649 26.0918C78.2266 27.0762 79.088 27.8379 80.0489 28.377C81.0216 28.916 82.0177 29.1855 83.0372 29.1855C84.045 29.1855 84.836 28.9277 85.4102 28.4121C85.9962 27.8965 86.2891 27.1816 86.2891 26.2676C86.2891 25.7402 86.1251 25.2539 85.797 24.8086C85.4688 24.3633 85.0294 23.9941 84.4786 23.7012C83.9395 23.3965 83.3243 23.0801 82.6329 22.752C81.9415 22.4121 81.2384 22.0898 80.5235 21.7852C79.8087 21.4805 79.1055 21.0996 78.4141 20.6426C77.7227 20.1855 77.1016 19.6875 76.5509 19.1484C76.0118 18.6094 75.5782 17.9297 75.2501 17.1094C74.922 16.2891 74.7579 15.3809 74.7579 14.3848C74.7579 12.3457 75.5137 10.6172 77.0255 9.19922C78.5489 7.78125 80.4825 7.07227 82.8262 7.07227C86.3419 7.07227 89.2833 8.49023 91.6505 11.3262L87.9063 14.6836C86.2891 12.5859 84.6075 11.5371 82.8614 11.5371C81.9942 11.5371 81.2911 11.7891 80.752 12.293C80.213 12.7969 79.9434 13.4238 79.9434 14.1738C79.9434 14.6543 80.0723 15.0938 80.3302 15.4922C80.5997 15.8789 80.9571 16.2246 81.4024 16.5293C81.8477 16.8223 82.3575 17.1094 82.9317 17.3906C83.5059 17.6602 84.1095 17.9414 84.7423 18.2344C85.3868 18.5156 86.0255 18.8145 86.6583 19.1309C87.3028 19.4473 87.9122 19.8281 88.4864 20.2734C89.0606 20.707 89.5704 21.1934 90.0157 21.7324C90.461 22.2598 90.8126 22.9043 91.0704 23.666C91.3399 24.416 91.4747 25.248 91.4747 26.1621C91.4395 28.4473 90.6251 30.2812 89.0313 31.6641C87.4493 33.0352 85.4747 33.7207 83.1075 33.7207C81.045 33.7207 79.2579 33.3691 77.7462 32.666C76.2462 31.9512 74.9161 30.8965 73.7559 29.502ZM93.5229 33L103.05 7.79297H109.747L119.292 33H113.861L111.453 26.4434H101.363L98.9545 33H93.5229ZM102.945 22.084H109.871L106.408 12.627L102.945 22.084ZM123.186 33V7.79297H129.743L141.011 25.8281V7.79297H146.126V33H139.569L128.302 14.8945V33H123.186ZM150.565 12.4512V7.79297H171.236V12.4512H163.467V33H158.352V12.4512H150.565ZM175.728 33V7.79297H190.423V12.1523H180.843V17.9883H188.982V22.3477H180.843V28.6406H190.423V33H175.728ZM180.703 5.64844L184.763 0.779297H190.019L185.343 5.64844H180.703Z" fill="#373C42"/>
</svg>